<?xml version="1.0" standalone="no"?>
<!DOCTYPE svg PUBLIC "-//W3C//DTD SVG 1.1//EN" "http://www.w3.org/Graphics/SVG/1.1/DTD/svg11.dtd" >
<svg xmlns="http://www.w3.org/2000/svg">
<metadata></metadata>
<defs>
<font id="rm_prolight" horiz-adv-x="572" >
<font-face units-per-em="1000" ascent="751" descent="-249" />
<missing-glyph horiz-adv-x="294" />
<glyph unicode="fi" horiz-adv-x="522" d="M27 490h78v88q0 60 30.5 93.5t89.5 33.5q30 0 54 -7v-43q-20 6 -41 6q-42 0 -59 -22t-17 -65v-84h273v-490h-55v444h-218v-444h-56v444h-79v46z" />
<glyph unicode="fl" horiz-adv-x="540" d="M280 655q-20 7 -42 7q-76 0 -76 -87v-85h103v-46h-103v-444h-56v444h-79v46h78v89q0 60 30.5 93.5t89.5 33.5q30 0 55 -7v-44zM471 -3q-60 0 -85 30t-25 93v579h56v-577q0 -43 15 -62.5t56 -19.5v-43h-17z" />
<glyph unicode=" "  horiz-adv-x="294" />
<glyph unicode="&#x09;" horiz-adv-x="294" />
<glyph unicode="&#xa0;" horiz-adv-x="294" />
<glyph unicode="!" horiz-adv-x="355" d="M166 152l-19 264v283h61v-282l-19 -265h-23zM207 0h-58v68h58v-68z" />
<glyph unicode="&#x22;" horiz-adv-x="267" d="M116 699v-198h-46v198h46zM197 699v-198h-46v198h46z" />
<glyph unicode="#" horiz-adv-x="520" d="M276 0l29 227h-119l-29 -227h-40l29 227h-89l5 39h88l23 170h-90l5 40h89l28 222h40l-29 -222h120l29 222h38l-28 -222h88l-5 -40h-88l-21 -170h88l-5 -39h-88l-28 -227h-40zM331 436h-119l-21 -170h119z" />
<glyph unicode="$" horiz-adv-x="649" d="M592 186q0 -94 -61 -147t-168 -58v-114h-44v113q-113 4 -178.5 60.5t-75.5 164.5h60q6 -78 55 -123.5t139 -50.5v309l-45 11q-95 23 -137 65.5t-42 111.5q0 85 57 136.5t167 54.5v118h44v-119q88 -6 146 -49.5t71 -132.5h-58q-18 121 -159 134v-286l39 -9 q102 -24 146 -69t44 -120zM293 401l26 -6v276q-81 -3 -123.5 -38.5t-42.5 -100.5q0 -55 33 -84t107 -47zM363 31q83 5 126.5 44.5t43.5 112.5q0 56 -32 86.5t-118 50.5l-20 5v-299z" />
<glyph unicode="%" horiz-adv-x="870" d="M359 493q0 -100 -40.5 -161t-105.5 -61t-105.5 61t-40.5 161t40.5 161.5t105.5 61.5t105.5 -61.5t40.5 -161.5zM598 699l-286 -699h-39l285 699h40zM309 493q0 84 -26 132.5t-70 48.5t-70 -48.5t-26 -132.5q0 -83 26 -131t70 -48t70 48t26 131zM803 209 q0 -100 -40 -161.5t-105 -61.5q-66 0 -106 61.5t-40 161.5t40 161.5t106 61.5q65 0 105 -61.5t40 -161.5zM753 209q0 84 -25.5 132.5t-69.5 48.5t-70 -49t-26 -132t26 -131.5t70 -48.5t69.5 48.5t25.5 131.5z" />
<glyph unicode="&#x26;" horiz-adv-x="698" d="M479 106q-107 -116 -220 -116q-88 0 -145 54.5t-57 137.5q0 131 166 208q-41 51 -56.5 86.5t-15.5 73.5q0 72 47.5 117.5t121.5 45.5q65 0 110 -44.5t45 -108.5q0 -61 -38.5 -105.5t-122.5 -80.5l168 -183q34 49 65 125h58q-37 -98 -86 -164l140 -152h-81zM419 554 q0 48 -28 79t-73 31q-47 0 -78 -32t-31 -80q0 -32 15.5 -62t57.5 -80q73 29 105 62.5t32 81.5zM256 350q-137 -59 -137 -163q0 -63 41 -104t105 -41q88 0 179 101z" />
<glyph unicode="'" horiz-adv-x="233" d="M156 699l-56 -198h-23l18 198h61z" />
<glyph unicode="(" horiz-adv-x="284" d="M255 765q-116 -205 -116 -447q0 -241 114 -444h-35q-139 204 -139 444t141 447h35z" />
<glyph unicode=")" horiz-adv-x="284" d="M205 318q0 -240 -139 -444h-35q115 205 115 444q0 240 -117 447h35q141 -207 141 -447z" />
<glyph unicode="*" horiz-adv-x="344" d="M67 595l10 37l81 -36l-4 103h36l-4 -103l81 36l10 -37l-83 -29l54 -80l-28 -23l-48 83l-48 -83l-28 23l54 80z" />
<glyph unicode="+" horiz-adv-x="670" d="M308 653h54v-278h256v-58h-256v-277h-54v277h-256v58h256v278z" />
<glyph unicode="," horiz-adv-x="199" d="M132 41q0 -65 -5.5 -94t-26.5 -77h-16q19 60 19 130h-36v82h65v-41z" />
<glyph unicode="-" horiz-adv-x="406" d="M357 307h-308v58h308v-58z" />
<glyph unicode="." horiz-adv-x="198" d="M131 0h-64v82h64v-82z" />
<glyph unicode="/" horiz-adv-x="503" d="M489 800l-428 -897h-47l428 897h47z" />
<glyph unicode="0" horiz-adv-x="575" d="M288 -11q-102 0 -169 97t-67 264q0 168 67 264.5t169 96.5t168.5 -96.5t66.5 -264.5q0 -167 -66.5 -264t-168.5 -97zM288 663q-83 0 -128 -85.5t-45 -227.5q0 -141 45 -226t128 -85t128 85.5t45 225.5q0 141 -45 227t-128 86z" />
<glyph unicode="1" horiz-adv-x="362" d="M48 570q73 2 115.5 30.5t57.5 98.5h33v-699h-59v535h-147v35z" />
<glyph unicode="2" horiz-adv-x="543" d="M50 42q122 100 219 199q133 135 133 261q0 71 -40.5 115t-107.5 44q-59 0 -96.5 -31.5t-47.5 -89.5h-58q9 69 51 113q56 56 153 56q99 0 152.5 -59t53.5 -145q0 -50 -15 -97t-42 -86.5t-49.5 -65.5t-53.5 -55q-127 -119 -169 -153h339v-48h-422v42z" />
<glyph unicode="3" horiz-adv-x="550" d="M266 -10q-145 0 -226 102l39 42q75 -95 190 -95q72 0 114 45.5t42 113.5q0 147 -196 147h-50v42l230 262h-348v50h416v-49l-225 -254q113 -2 173 -52t60 -145q0 -93 -60 -151t-159 -58z" />
<glyph unicode="4" horiz-adv-x="541" d="M404 228h100v-50h-100v-178h-58v178h-314v47l323 474h49v-471zM346 228v375l-255 -375h255z" />
<glyph unicode="5" horiz-adv-x="593" d="M293 -10q-76 0 -130.5 36t-80.5 101h67q46 -88 144 -88q78 0 123.5 56.5t45.5 145.5q0 83 -44.5 135.5t-120.5 52.5q-58 0 -93.5 -29t-51.5 -66h-55v365h380v-50h-327v-244q60 75 165 75q101 0 154.5 -69.5t53.5 -169.5t-60.5 -175.5t-169.5 -75.5z" />
<glyph unicode="6" horiz-adv-x="562" d="M296 -14q-113 0 -176 91q-58 85 -58 257q0 77 14 152q22 109 79 166t141 57q80 0 126 -42q49 -45 64 -118l-57 -8q-14 54 -48 87.5t-84 33.5q-78 0 -124 -71q-51 -78 -54 -269q58 122 188 122q80 0 141.5 -59.5t61.5 -160.5q0 -97 -57.5 -167.5t-156.5 -70.5zM295 393 q-69 0 -113.5 -51t-44.5 -128t44.5 -128t113.5 -51t113.5 51t44.5 128t-44.5 128t-113.5 51z" />
<glyph unicode="7" horiz-adv-x="529" d="M92 0l312 649h-374v50h437v-55l-308 -644h-67z" />
<glyph unicode="8" horiz-adv-x="566" d="M283 -11q-108 0 -168.5 55t-60.5 148q0 59 35 109t99 71q-116 36 -116 159q0 85 57 133t154 48t154 -48t57 -133q0 -123 -116 -159q64 -21 99 -71t35 -109q0 -94 -60 -148.5t-169 -54.5zM283 665q-66 0 -108 -36.5t-42 -97.5t42 -98t108 -37t108.5 37t42.5 98t-42.5 97.5 t-108.5 36.5zM283 350q-75 0 -122 -43t-47 -114t47 -114t122 -43t122 43t47 114t-47 114t-122 43z" />
<glyph unicode="9" horiz-adv-x="567" d="M490 212q-22 -108 -79 -165t-140 -57q-79 0 -127 42q-39 38 -56 91h62q37 -86 120 -86q78 0 124 71q51 78 54 274q-58 -122 -188 -122q-81 0 -142 58.5t-61 159.5q0 97 57 166t157 69q112 0 175 -91q59 -85 59 -257q0 -79 -15 -153zM272 663q-70 0 -114 -49t-44 -126 t44.5 -127t113.5 -50t113.5 50t44.5 127t-44 126t-114 49z" />
<glyph unicode=":" horiz-adv-x="212" d="M138 234h-64v82h64v-82zM138 0h-64v82h64v-82z" />
<glyph unicode=";" horiz-adv-x="213" d="M138 234h-64v82h64v-82zM139 41q0 -65 -5.5 -94t-26.5 -77h-16q19 60 19 130h-36v82h65v-41z" />
<glyph unicode="&#x3c;" horiz-adv-x="547" d="M57 309v47l433 235v-58l-373 -200l373 -199v-58z" />
<glyph unicode="=" horiz-adv-x="616" d="M559 397h-502v57h502v-57zM559 217h-502v58h502v-58z" />
<glyph unicode="&#x3e;" horiz-adv-x="547" d="M57 75v58l373 199l-373 200v58l433 -235v-47z" />
<glyph unicode="?" horiz-adv-x="573" d="M504 516q0 -89 -53.5 -143t-129.5 -54v-167h-57v210h17q90 0 128 46.5t38 104.5q0 73 -44.5 112.5t-110.5 39.5q-51 0 -88 -26.5t-52 -73.5q-11 -32 -11 -70l-57 1q3 98 52 152q60 64 157 64q93 0 152 -52t59 -144zM321 0h-58v70h58v-70z" />
<glyph unicode="@" horiz-adv-x="839" d="M782 427q0 -128 -58 -231q-68 -122 -154 -122q-66 0 -77 69q-54 -68 -130 -68q-55 0 -96.5 40.5t-41.5 115.5q0 121 59.5 201.5t149.5 80.5q82 0 112 -74l10 53h50l-30 -142q-29 -135 -29 -179q0 -54 38 -54q53 0 105.5 98t52.5 211q0 118 -67 186t-183 68 q-104 0 -195 -61.5t-145 -164.5t-54 -220q0 -86 29 -151.5t77 -102t103 -54.5t115 -18q177 0 323 148l4 4l21 -31l-2 -3q-153 -153 -343 -153q-45 0 -91.5 10t-97.5 35.5t-90 65t-64.5 104.5t-25.5 147q0 88 31.5 173.5t86.5 154t140 111t183 42.5q130 0 207 -78.5 t77 -210.5zM525 350q1 47 -22.5 86t-72.5 39q-48 0 -84 -40.5t-52 -94t-16 -105.5q0 -38 11 -64.5t28 -37t29 -14.5t22 -4q65 0 110 72t47 163z" />
<glyph unicode="A" horiz-adv-x="603" d="M522 0l-75 225h-288l-78 -225h-62l249 699h77l239 -699h-62zM432 271l-127 377l-130 -377h257z" />
<glyph unicode="B" horiz-adv-x="657" d="M384 699q91 0 146.5 -43.5t55.5 -131.5q0 -129 -135 -156q84 -15 120 -57t36 -120q0 -98 -60.5 -144.5t-161.5 -46.5h-295v699h294zM375 389q68 0 109 32t41 99q0 66 -41 98t-109 32h-227v-261h227zM370 49q179 0 179 147t-179 147h-222v-294h222z" />
<glyph unicode="C" horiz-adv-x="738" d="M634 518q-20 68 -82 109.5t-151 41.5q-131 0 -207.5 -94t-76.5 -225t76.5 -225.5t204.5 -94.5q84 0 147.5 41.5t90.5 109.5h60q-34 -91 -114 -146t-186 -55q-152 0 -245.5 108.5t-93.5 260.5q0 153 96 261.5t250 108.5q109 0 189 -56t102 -145h-60z" />
<glyph unicode="D" horiz-adv-x="726" d="M292 0h-202v699h202q194 0 283 -84t89 -265t-89 -265.5t-283 -84.5zM266 651h-117v-604h117q190 0 264 68t74 235t-74 234t-264 67z" />
<glyph unicode="E" horiz-adv-x="599" d="M149 336v-288h395v-48h-454v699h442v-49h-383v-265h333v-49h-333z" />
<glyph unicode="F" horiz-adv-x="550" d="M496 699v-49h-347v-265h323v-49h-323v-336h-59v699h406z" />
<glyph unicode="G" horiz-adv-x="798" d="M400 -20q-109 0 -189 52.5t-118 135t-38 182.5q0 155 92 262t254 107q108 0 185 -51t108 -150h-60q-27 75 -87.5 113t-144.5 38q-133 0 -210 -87.5t-77 -230.5q0 -145 78 -233t207 -88q125 0 196.5 80t71.5 199h-223v50h283v-7q0 -164 -85.5 -268t-242.5 -104z" />
<glyph unicode="H" horiz-adv-x="708" d="M559 386v313h59v-699h-59v337h-411v-337h-58v699h58v-313h411z" />
<glyph unicode="I" horiz-adv-x="239" d="M90 0v699h59v-699h-59z" />
<glyph unicode="J" horiz-adv-x="366" d="M104 -11q-43 0 -76 11v49q34 -12 64 -12q43 0 69 11.5t38 37.5t15 50.5t3 67.5v495h59v-515q0 -195 -172 -195z" />
<glyph unicode="K" horiz-adv-x="609" d="M503 699h64l-262 -284l281 -415h-70l-250 370l-119 -125v-245h-57v699h57v-389z" />
<glyph unicode="L" horiz-adv-x="532" d="M149 699v-651h346v-48h-405v699h59z" />
<glyph unicode="M" horiz-adv-x="850" d="M427 166l265 533h68v-699h-57v612l-280 -563l-280 564v-613h-53v699h73z" />
<glyph unicode="N" horiz-adv-x="719" d="M629 699v-699h-70l-413 615v-615h-56v699h68l414 -617v617h57z" />
<glyph unicode="O" horiz-adv-x="785" d="M393 -20q-147 0 -242.5 104t-95.5 266q0 161 95.5 264.5t242.5 103.5t242 -103.5t95 -264.5q0 -162 -95 -266t-242 -104zM393 670q-125 0 -201.5 -88.5t-76.5 -231.5t77 -232.5t201 -89.5t200.5 89t76.5 233q0 143 -76.5 231.5t-200.5 88.5z" />
<glyph unicode="P" horiz-adv-x="612" d="M348 699q92 0 151.5 -63t59.5 -155t-59.5 -155t-151.5 -63h-200v-263h-58v699h258zM347 313q72 0 116.5 47.5t44.5 119.5t-45 120.5t-116 48.5h-199v-336h199z" />
<glyph unicode="Q" horiz-adv-x="785" d="M730 350q0 -161 -96 -267l65 -83h-61l-39 50q-87 -70 -206 -70q-147 0 -242.5 104t-95.5 266q0 161 95.5 264.5t242.5 103.5t242 -103.5t95 -264.5zM393 28q103 0 174 62l-90 115h61l62 -79q70 86 70 224q0 143 -76.5 231.5t-200.5 88.5q-125 0 -201.5 -88.5 t-76.5 -231.5t77 -232.5t201 -89.5z" />
<glyph unicode="R" horiz-adv-x="618" d="M352 699q93 0 153 -61.5t60 -155.5q0 -83 -49 -141t-133 -73l210 -268h-72l-207 266h-166v-266h-58v699h262zM343 316q74 0 118 46.5t44 120.5q0 73 -42.5 119t-119.5 46h-195v-332h195z" />
<glyph unicode="S" horiz-adv-x="649" d="M336 -20q-121 0 -191 56.5t-80 168.5h60q6 -82 61 -128.5t156 -46.5q93 0 142 40.5t49 117.5q0 56 -32 86.5t-118 50.5l-109 26q-95 23 -137 65.5t-42 111.5q0 87 60 139t177 52q221 0 248 -183h-58q-20 135 -191 135q-87 0 -132.5 -36t-45.5 -103q0 -55 33 -84t107 -47 l109 -26q102 -24 146 -69t44 -120q0 -100 -68.5 -153t-187.5 -53z" />
<glyph unicode="T" horiz-adv-x="521" d="M290 650v-650h-58v650h-208v49h473v-49h-207z" />
<glyph unicode="U" horiz-adv-x="670" d="M335 -20q-123 0 -184 66t-61 215v438h58v-434q0 -126 43.5 -181.5t143.5 -55.5t143.5 55.5t43.5 181.5v434h58v-438q0 -149 -61 -215t-184 -66z" />
<glyph unicode="V" horiz-adv-x="566" d="M250 0l-228 699h60l204 -633l197 633h61l-226 -699h-68z" />
<glyph unicode="W" horiz-adv-x="952" d="M443 699h65l195 -643l174 643h58l-201 -699h-66l-193 642l-189 -642h-67l-202 699h60l177 -644z" />
<glyph unicode="X" horiz-adv-x="550" d="M443 699h66l-202 -332l223 -367h-67l-188 315l-190 -315h-65l222 367l-204 332h69l170 -282z" />
<glyph unicode="Y" horiz-adv-x="562" d="M542 699l-234 -376v-323h-59v323l-229 376h69l189 -316l193 316h71z" />
<glyph unicode="Z" horiz-adv-x="590" d="M528 652q-62 -93 -408 -605h418v-47h-496v41l414 609h-379v49h451v-47z" />
<glyph unicode="[" horiz-adv-x="389" d="M333 -60h-231v806h231v-38h-178v-730h178v-38z" />
<glyph unicode="\" horiz-adv-x="503" d="M489 -97h-47l-428 897h47z" />
<glyph unicode="]" horiz-adv-x="389" d="M287 -60h-231v38h178v730h-178v38h231v-806z" />
<glyph unicode="^" horiz-adv-x="506" d="M375 480l-123 163l-119 -163h-76l163 219h67l162 -219h-74z" />
<glyph unicode="_" horiz-adv-x="593" d="M593 -126h-593v48h593v-48z" />
<glyph unicode="`" horiz-adv-x="231" d="M174 575h-40l-77 106h81z" />
<glyph unicode="a" horiz-adv-x="529" d="M266 506q96 0 138.5 -41.5t42.5 -145.5v-319h-56v66q-55 -81 -175 -81q-79 0 -121.5 37t-42.5 103q0 27 6.5 48.5t22.5 37t29 25.5t40.5 19t42 13t46.5 11q4 1 7 1.5t6 1.5q100 23 139 42q-1 82 -28 110t-97 28q-65 0 -94.5 -19t-37.5 -60h-55q14 123 187 123zM225 27 q75 0 120.5 40.5t45.5 109.5v106q-40 -20 -118 -35q-34 -7 -50.5 -11.5t-43 -14.5t-39 -21.5t-22.5 -31t-10 -45.5q0 -97 117 -97z" />
<glyph unicode="b" d="M525 245q0 -106 -56.5 -182.5t-157.5 -76.5q-116 0 -168 86v-72h-56v699h56v-297q56 102 172 102q98 0 154 -78t56 -181zM469 245q0 85 -41 148t-121 63q-81 0 -124 -62.5t-43 -148.5t42.5 -148.5t124.5 -62.5q81 0 121.5 63t40.5 148z" />
<glyph unicode="c" horiz-adv-x="508" d="M461 106q-53 -120 -189 -120q-111 0 -167 73.5t-56 186.5t56 186.5t167 73.5q132 0 185 -112h-59q-36 66 -124 66q-45 0 -79 -18.5t-52.5 -50.5t-27.5 -68t-9 -77q0 -56 15 -102t54 -79t99 -33q90 0 128 74h59z" />
<glyph unicode="d" d="M436 86q-53 -100 -175 -100q-101 0 -157.5 76.5t-56.5 182.5q0 102 57.5 180.5t154.5 78.5q118 0 170 -94v289h56v-699h-49v86zM432 245q0 86 -43 148.5t-125 62.5q-80 0 -120.5 -63t-40.5 -148t40 -148t121 -63q82 0 125 62.5t43 148.5z" />
<glyph unicode="e" horiz-adv-x="509" d="M101 246q0 -215 165 -215q104 0 132 79h55q-48 -125 -191 -125q-108 0 -161.5 73.5t-53.5 185.5q0 111 52.5 185.5t160.5 74.5q106 0 154.5 -72.5t48.5 -185.5h-362zM406 286q-3 80 -40.5 126t-106.5 46q-73 0 -111.5 -48.5t-44.5 -123.5h303z" />
<glyph unicode="f" horiz-adv-x="312" d="M280 653q-20 7 -42 7q-43 0 -59.5 -19t-16.5 -66v-85h103v-47h-103v-443h-56v443h-79v47h78v89q0 60 30.5 93.5t89.5 33.5q30 0 55 -7v-46z" />
<glyph unicode="g" d="M485 23q0 -114 -28 -165q-50 -91 -180 -91q-83 0 -139 42.5t-63 124.5h57q19 -120 148 -120q78 0 115 43q13 15 20.5 34.5t10.5 47.5t3.5 44t0 51.5t-0.5 42.5q-55 -92 -166 -92q-102 0 -159 76.5t-57 181.5q0 67 23 124.5t74 97.5t122 40q119 0 169 -102v87h50v-467z M432 245q0 86 -43 148.5t-124 62.5t-121.5 -63t-40.5 -148q0 -53 15.5 -99t53.5 -79.5t94 -33.5q55 0 93.5 32t55.5 79t17 101z" />
<glyph unicode="h" horiz-adv-x="545" d="M407 296q0 79 -23.5 123t-89.5 44q-58 0 -95 -34t-49 -89q-7 -32 -7 -97v-243h-56v699h56v-288q51 94 162 94q90 0 124 -52.5t34 -151.5v-301h-56v296z" />
<glyph unicode="i" horiz-adv-x="230" d="M152 618h-74v81h74v-81zM143 0h-56v490h56v-490z" />
<glyph unicode="j" horiz-adv-x="227" d="M149 618h-74v81h74v-81zM140 -116q0 -118 -104 -118q-20 0 -39 3v43q14 -2 22 -2q18 0 31 5.5t19.5 13.5t10 22t4 25t0.5 30v584h56v-606z" />
<glyph unicode="k" horiz-adv-x="459" d="M373 490h62l-226 -226l232 -264h-68l-230 255v-255h-56v699h56v-438z" />
<glyph unicode="l" horiz-adv-x="266" d="M197 -3q-60 0 -85 30t-25 93v579h56v-577q0 -47 13.5 -62t57.5 -15v-48h-17z" />
<glyph unicode="m" horiz-adv-x="833" d="M695 286q0 99 -22 132q-32 45 -89 45q-68 0 -102.5 -50.5t-34.5 -121.5v-291h-56v286q0 99 -22 132q-30 45 -89 45q-51 0 -85 -31.5t-45 -82.5q-7 -34 -7 -104v-245h-56v490h56v-80q45 95 153 95q52 0 89.5 -25.5t51.5 -73.5q45 99 163 99q51 0 89 -26t52 -75 q10 -37 10 -113v-291h-56v286z" />
<glyph unicode="n" horiz-adv-x="545" d="M407 296q0 79 -23.5 123t-89.5 44q-58 0 -95 -34t-49 -89q-7 -32 -7 -97v-243h-56v490h56v-79q51 94 162 94q90 0 124 -52.5t34 -151.5v-301h-56v296z" />
<glyph unicode="o" horiz-adv-x="535" d="M488 246q0 -112 -55.5 -186.5t-164.5 -74.5q-108 0 -164.5 74.5t-56.5 186.5t56.5 185.5t164.5 73.5q109 0 164.5 -73.5t55.5 -185.5zM430 245q0 42 -8 78.5t-25.5 68.5t-50 50.5t-77.5 18.5q-86 0 -125 -62.5t-39 -155.5q0 -90 38 -152t125 -62q45 0 78 18.5t50.5 50.5 t25.5 68t8 79z" />
<glyph unicode="p" d="M525 246q0 -77 -30 -141t-93 -96q-43 -23 -91 -23q-124 0 -175 98v-309h-49v715h49v-97q57 111 179 111q52 0 96 -26q58 -34 86 -96.5t28 -135.5zM469 246q0 84 -41 147t-121 63q-81 0 -124 -62.5t-43 -147.5q0 -86 42.5 -149t124.5 -63q81 0 121.5 63t40.5 149z" />
<glyph unicode="q" d="M436 88q-56 -101 -176 -101q-101 0 -157 75t-56 184q0 73 29 135.5t88 96.5q44 27 95 27q125 0 177 -103v88h49v-715h-49v313zM432 246q0 86 -43 148.5t-125 62.5q-80 0 -120.5 -63t-40.5 -148q0 -86 40 -148.5t121 -62.5q82 0 125 62.5t43 148.5z" />
<glyph unicode="r" horiz-adv-x="325" d="M303 440q-6 1 -19 1q-84 0 -125 -74q-22 -40 -22 -133v-234h-50v490h50v-94q40 99 154 99q2 0 6 -0.5t6 -0.5v-54z" />
<glyph unicode="s" horiz-adv-x="467" d="M425 132q0 -74 -54.5 -110.5t-135.5 -36.5q-75 0 -127.5 33t-60.5 101h60q18 -86 133 -86q61 0 95.5 25.5t34.5 69.5q0 21 -8.5 37t-19.5 25.5t-33 18t-37.5 12.5t-43.5 10q-34 8 -50 12.5t-43 15.5t-40 24t-23.5 35t-10.5 51q0 70 51 103t124 33q75 0 122 -33t56 -94 h-60q-16 80 -116 80q-57 0 -90 -23.5t-33 -64.5q0 -19 8 -33.5t18.5 -23.5t32 -17t36 -12t42.5 -10q34 -8 51 -12.5t44.5 -16t41.5 -24.5t25 -36t11 -53z" />
<glyph unicode="t" horiz-adv-x="294" d="M160 119q0 -41 13 -60t51 -19q11 0 17 1v-43q-15 -3 -29 -3q-60 0 -84 30t-24 92v326h-77v47h77v148h56v-148h97v-47h-97v-324z" />
<glyph unicode="u" horiz-adv-x="545" d="M403 79q-51 -94 -162 -94q-53 0 -94 26t-54 75q-11 37 -11 113v291h56v-296q0 -89 28 -127t89 -38q55 0 92 33.5t48 87.5q7 32 7 97v243h56v-490h-56z" />
<glyph unicode="v" horiz-adv-x="435" d="M245 0h-52l-176 490h60l144 -410l141 410h56z" />
<glyph unicode="w" horiz-adv-x="707" d="M197 74l135 416h47l131 -416l127 416h53l-158 -490h-49l-132 406l-133 -406h-50l-151 490h58z" />
<glyph unicode="x" horiz-adv-x="450" d="M226 294l128 196h58l-157 -237l163 -253h-60l-134 212l-134 -212h-58l163 253l-154 237l60 -1z" />
<glyph unicode="y" horiz-adv-x="463" d="M390 490h56l-222 -602q-45 -120 -137 -120q-22 0 -38 4l4 46q18 -4 29 -4q22 0 37.5 6.5t26 21.5t16 27t14.5 36l38 100l-197 485h58l163 -411z" />
<glyph unicode="z" horiz-adv-x="452" d="M122 46h275v-46h-342v44l264 400h-248v46h320v-37z" />
<glyph unicode="{" horiz-adv-x="286" d="M259 -114q-47 2 -76.5 16.5t-43 44.5t-17 59t-3.5 77v86q0 81 -9 108q-16 47 -63 58v22q21 5 35.5 18t21.5 25.5t10.5 36t4 36t0.5 38.5v13v86q0 38 2 62t9.5 51.5t22.5 43.5t41.5 27.5t64.5 12.5v-17q-29 -6 -46.5 -19.5t-25 -36.5t-9.5 -42.5t-2 -51.5v-113 q0 -39 -3 -62.5t-12.5 -49.5t-31 -42.5t-55.5 -26.5q34 -10 55.5 -26.5t31 -42t12.5 -49t3 -62.5v-114q0 -32 2 -51t9.5 -42t25 -37t46.5 -20v-16z" />
<glyph unicode="|" horiz-adv-x="200" d="M128 -112h-56v821h56v-821z" />
<glyph unicode="}" horiz-adv-x="286" d="M239 335q-21 -5 -35.5 -18t-21.5 -25.5t-10.5 -35.5t-4 -35.5t-0.5 -38.5v-4.5v-4v-4.5v-86q0 -48 -3.5 -77t-17 -59t-43 -44.5t-76.5 -16.5v16q29 6 46.5 20t25 37t9.5 42t2 51v114q0 52 5 81.5t28 57.5t68 41q-64 19 -82.5 61t-18.5 120v113q0 32 -2 51.5t-9.5 42.5 t-25 36.5t-46.5 19.5v17q38 -1 64.5 -12.5t41.5 -27.5t22.5 -43.5t9.5 -51.5t2 -62v-86q0 -82 10 -110q17 -45 62 -57v-22z" />
<glyph unicode="~" horiz-adv-x="534" d="M477 352q-42 -85 -109 -85q-43 0 -109.5 43.5t-90.5 43.5q-31 0 -50.5 -19t-37.5 -53l-23 38q42 84 109 84q43 0 109.5 -43t90.5 -43q30 0 49.5 18.5t38.5 52.5z" />
<glyph unicode="&#xa1;" horiz-adv-x="295" d="M177 428h-58v68h58v-68zM117 77q0 24 6 94l14 174h23l13 -174q5 -85 5 -93v-280h-61v279z" />
<glyph unicode="&#xa2;" horiz-adv-x="586" d="M499 105q-51 -111 -171 -119v-73h-40v73q-99 7 -150 79.5t-51 179.5q0 108 51 180.5t150 79.5v72h40v-72q116 -9 167 -112h-57q-40 63 -110 72v-439q77 9 114 79h57zM288 465q-50 -6 -83.5 -41.5t-47 -81t-13.5 -97.5t13.5 -97.5t47 -80.5t83.5 -41v439z" />
<glyph unicode="&#xa3;" horiz-adv-x="588" d="M484 585q-31 39 -64 57.5t-80 18.5q-74 0 -106 -50t-32 -129v-123h239v-48h-239v-263h311v-48h-451v48h79v263h-79v48h79v123q0 99 51 163.5t148 64.5q62 0 105 -21.5t81 -69.5z" />
<glyph unicode="&#xa5;" horiz-adv-x="578" d="M316 0h-59v166h-161v42h161v75h-161v43h160l-228 373h69l190 -315l192 315h71l-233 -373h166v-43h-167v-75h167v-42h-167v-166z" />
<glyph unicode="&#xa6;" horiz-adv-x="220" d="M133 359h-46v350h46v-350zM133 -112h-46v351h46v-351z" />
<glyph unicode="&#xa7;" horiz-adv-x="517" d="M440 347q0 -40 -27 -69t-68 -42l3 -1q41 -12 64 -42.5t23 -73.5q0 -64 -53.5 -99t-121.5 -35q-152 0 -172 115h55q17 -73 117 -73q46 0 82.5 21t36.5 64q0 23 -7 39t-23.5 26t-30 15.5t-38.5 12.5l-64 18q-30 9 -49 16.5t-39.5 21.5t-30.5 35t-10 49q0 40 27 69t68 42 l-3 1q-41 13 -64 43t-23 73q0 65 53.5 99.5t121.5 34.5q152 0 172 -114h-55q-16 72 -117 72q-46 0 -82.5 -21t-36.5 -64q0 -23 7 -39t23.5 -26t30 -15.5t38.5 -12.5l64 -18q30 -9 49 -16.5t39.5 -21.5t30.5 -35t10 -49zM385 339q0 53 -68 74q-60 20 -90 29q-36 -8 -60.5 -31 t-24.5 -58q0 -53 68 -74q15 -5 45 -14.5t45 -14.5q36 8 60.5 31.5t24.5 57.5z" />
<glyph unicode="&#xa8;" horiz-adv-x="387" d="M131 600h-74v81h74v-81zM330 600h-74v81h74v-81z" />
<glyph unicode="&#xa9;" horiz-adv-x="785" d="M728 353q0 -144 -97 -251.5t-239 -107.5t-238.5 106t-96.5 249q0 144 97 251.5t240 107.5q141 0 237.5 -106t96.5 -249zM691 351q0 130 -84.5 224.5t-212.5 94.5q-129 0 -214.5 -94t-85.5 -225q0 -130 84.5 -225t213.5 -95t214 94.5t85 225.5zM517 425q-18 36 -50 57 t-71 21q-61 0 -99.5 -44t-38.5 -106q0 -61 39 -106.5t100 -45.5q39 0 71.5 21t49.5 57h56q-20 -57 -68.5 -91t-109.5 -34q-83 0 -137 57t-54 140q0 84 54 141.5t138 57.5q61 0 109.5 -34t68.5 -91h-58z" />
<glyph unicode="&#xaa;" horiz-adv-x="302" d="M226 452q-32 -37 -97 -37q-40 0 -66 21t-26 60q0 44 29.5 64.5t85.5 32t75 20.5q0 38 -14 52.5t-53 14.5q-64 0 -70 -44h-38q8 76 107 76q52 0 79 -19.5t27 -69.5v-200h-39v29zM226 581q-23 -11 -75 -23q-75 -14 -75 -58q0 -55 64 -55q37 0 61.5 20t24.5 56v60z" />
<glyph unicode="&#xab;" horiz-adv-x="486" d="M57 217l135 219h54l-134 -219l134 -217h-54zM219 217l134 219h56l-135 -219l135 -217h-56z" />
<glyph unicode="&#xac;" horiz-adv-x="581" d="M464 225h-407v59h467v-284h-60v225z" />
<glyph unicode="&#xad;" horiz-adv-x="406" d="M357 307h-308v58h308v-58z" />
<glyph unicode="&#xae;" horiz-adv-x="508" d="M451 487q0 -85 -57 -148t-141 -63q-83 0 -139.5 62t-56.5 146q0 85 56.5 148t140.5 63q83 0 140 -62t57 -146zM423 485q0 74 -48 127.5t-121 53.5t-121.5 -53.5t-48.5 -127.5t48 -127.5t121 -53.5t121.5 53.5t48.5 127.5zM269 595q27 0 45.5 -17.5t18.5 -44.5 q0 -21 -12 -37t-32 -21l59 -71h-35l-56 67h-38v-67h-27v191h77zM306 533q0 16 -10.5 26t-26.5 10h-50v-72h50q16 0 26.5 10t10.5 26z" />
<glyph unicode="&#xaf;" horiz-adv-x="393" d="M336 608h-279v51h279v-51z" />
<glyph unicode="&#xb0;" horiz-adv-x="349" d="M292 594q0 -49 -34 -83t-83 -34t-83.5 34t-34.5 83t34.5 83.5t83.5 34.5t83 -34.5t34 -83.5zM260 594q0 36 -24.5 62t-60.5 26t-61 -26t-25 -62t25 -62t61 -26t60.5 26t24.5 62z" />
<glyph unicode="&#xb1;" horiz-adv-x="598" d="M271 610h54v-215h216v-58h-216v-215h-54v215h-213v58h213v215zM540 0h-483v58h483v-58z" />
<glyph unicode="&#xb2;" horiz-adv-x="323" d="M42 342q67 55 118 108q70 72 70 136q0 35 -20 57.5t-54 22.5q-30 0 -49 -17t-22 -48h-43q4 49 35 76t80 27q52 0 84 -32t32 -84q0 -53 -25.5 -93t-75.5 -88q-42 -40 -64 -59h170v-38h-236v32z" />
<glyph unicode="&#xb3;" horiz-adv-x="337" d="M292 424q0 -53 -33.5 -86t-88.5 -33q-82 0 -128 61l29 32q40 -55 100 -55q38 0 58 23.5t20 56.5q0 74 -99 74h-32v30l115 133h-178v39h233v-34l-113 -130q117 -8 117 -111z" />
<glyph unicode="&#xb4;" horiz-adv-x="231" d="M174 681l-77 -106h-40l37 106h80z" />
<glyph unicode="&#xb5;" horiz-adv-x="750" d="M448 206q0 -97 -26 -141q-44 -73 -154 -73q-81 0 -125 47v-250l-56 -2v703h57v-278v-20.5v-23t1 -20.5t3 -23t6 -19t10 -20q31 -48 104 -48q72 0 104 48q5 7 8.5 15.5t5.5 19t3.5 17t2 19.5t0.5 17.5v20v17.5v278h56v-284z" />
<glyph unicode="&#xb6;" horiz-adv-x="498" d="M178 344q-76 12 -109 51q-42 48 -42 121q0 69 34 114q30 39 69 54t94 15h194v-38h-32v-735h-47v735h-114v-735h-47v418z" />
<glyph unicode="&#xb7;" horiz-adv-x="238" d="M151 313h-64v82h64v-82z" />
<glyph unicode="&#xb8;" horiz-adv-x="297" d="M240 -127q0 -38 -27 -61t-66 -23q-53 0 -90 34l25 26q29 -26 66 -26q23 0 38.5 13t15.5 35q0 18 -8.5 29t-26.5 15t-29 5t-31 1v23l52 56h42l-52 -53q44 -6 67.5 -20.5t23.5 -53.5z" />
<glyph unicode="&#xb9;" horiz-adv-x="236" d="M41 629q45 1 65.5 17t27.5 53h29v-388h-43v288h-79v30z" />
<glyph unicode="&#xba;" horiz-adv-x="328" d="M291 568q0 -64 -32.5 -106.5t-94.5 -42.5t-94.5 42.5t-32.5 106.5t32.5 106.5t94.5 42.5q63 0 95 -42.5t32 -106.5zM251 568q0 50 -20 85t-67 35q-46 0 -66.5 -35t-20.5 -85t20 -85t67 -35t67 35t20 85z" />
<glyph unicode="&#xbb;" horiz-adv-x="486" d="M77 0l135 217l-135 219h56l134 -219l-134 -217h-56zM240 0l134 217l-134 219h54l135 -219l-135 -217h-54z" />
<glyph unicode="&#xbc;" horiz-adv-x="660" d="M41 629q45 1 65.5 17t27.5 53h29v-388h-43v288h-79v30zM456 699l-286 -699h-39l286 699h39zM554 388v-254h53v-38h-53v-96h-43v96h-167v33l175 259h35zM392 134h119v177z" />
<glyph unicode="&#xbd;" horiz-adv-x="691" d="M41 629q45 1 65.5 17t27.5 53h29v-388h-43v288h-79v30zM455 699l-286 -699h-39l286 699h39zM404 33q64 52 117 107q69 71 69 136q0 36 -20.5 58t-52.5 22q-30 0 -49 -17t-23 -48h-43q5 45 30 70q31 33 86 33q56 0 85.5 -34.5t29.5 -81.5q0 -85 -87 -168q-9 -9 -14 -13 q-32 -32 -63 -59h169v-38h-236v31z" />
<glyph unicode="&#xbe;" horiz-adv-x="743" d="M292 424q0 -53 -33.5 -86t-88.5 -33q-82 0 -128 61l29 32q40 -55 100 -55q38 0 58 23.5t20 56.5q0 74 -99 74h-32v30l115 133h-178v39h233v-34l-113 -130q117 -8 117 -111zM545 699l-286 -699h-39l286 699h39zM643 388v-254h53v-38h-53v-96h-43v96h-167l1 33l174 259h35z M481 134h119v177z" />
<glyph unicode="&#xbf;" horiz-adv-x="499" d="M278 426h-58v70h58v-70zM457 1q-2 -98 -56.5 -157.5t-151.5 -59.5q-94 0 -153 52t-59 144q0 83 51 140.5t132 57.5v166h58v-209h-17q-75 0 -121 -39.5t-46 -112.5q0 -69 43 -110.5t112 -41.5q72 0 111.5 48.5t39.5 121.5h57z" />
<glyph unicode="&#xc0;" horiz-adv-x="603" d="M338 754h-40l-77 106h81zM522 0l-75 225h-288l-78 -225h-62l249 699h77l239 -699h-62zM432 271l-127 377l-130 -377h257z" />
<glyph unicode="&#xc1;" horiz-adv-x="603" d="M389 860l-77 -106h-40l37 106h80zM522 0l-75 225h-288l-78 -225h-62l249 699h77l239 -699h-62zM432 271l-127 377l-130 -377h257z" />
<glyph unicode="&#xc2;" horiz-adv-x="603" d="M365 749l-60 81l-61 -81h-56l87 111h58l89 -111h-57zM522 0l-75 225h-288l-78 -225h-62l249 699h77l239 -699h-62zM432 271l-127 377l-130 -377h257z" />
<glyph unicode="&#xc3;" horiz-adv-x="603" d="M455 839q-11 -38 -29.5 -58.5t-52.5 -20.5q-21 0 -61 16t-59 16q-34 0 -47 -36h-39v2q11 39 29.5 60t53.5 21q22 0 62 -16t58 -16q34 0 45 33zM522 0l-75 225h-288l-78 -225h-62l249 699h77l239 -699h-62zM432 271l-127 377l-130 -377h257z" />
<glyph unicode="&#xc4;" horiz-adv-x="603" d="M262 759h-74v81h74v-81zM421 759h-74v81h74v-81zM522 0l-75 225h-288l-78 -225h-62l249 699h77l239 -699h-62zM432 271l-127 377l-130 -377h257z" />
<glyph unicode="&#xc5;" horiz-adv-x="603" d="M395 816q0 -36 -27 -61.5t-63 -25.5t-63 25t-27 61t27 61.5t63 25.5t63 -25t27 -61zM362 815q0 24 -16.5 41t-40.5 17q-23 0 -40 -17t-17 -40t17 -40t40 -17t40 16.5t17 39.5zM522 0l-75 225h-288l-78 -225h-62l249 699h77l239 -699h-62zM432 271l-127 377l-130 -377h257 z" />
<glyph unicode="&#xc6;" horiz-adv-x="937" d="M511 651v-266h308v-49h-308v-288h371v-48h-429v225h-238l-133 -225h-62l421 699h428v-48h-358zM453 271v357l-211 -357h211z" />
<glyph unicode="&#xc7;" horiz-adv-x="738" d="M696 181q-34 -91 -114 -146t-186 -55l-32 -33q44 -6 67.5 -20.5t23.5 -53.5q0 -38 -27 -61t-66 -23q-53 0 -90 34l25 26q29 -26 66 -26q23 0 38.5 13t15.5 35q0 18 -8.5 29t-26.5 15t-29 5t-31 1v23l35 38q-136 15 -218 120t-82 247q0 153 96 261.5t250 108.5 q109 0 189 -56t102 -145h-60q-20 68 -82 109.5t-151 41.5q-131 0 -207.5 -94t-76.5 -225t76.5 -225.5t204.5 -94.5q84 0 147.5 41.5t90.5 109.5h60z" />
<glyph unicode="&#xc8;" horiz-adv-x="599" d="M343 754h-40l-77 106h81zM149 336v-288h395v-48h-454v699h442v-49h-383v-265h333v-49h-333z" />
<glyph unicode="&#xc9;" horiz-adv-x="599" d="M394 860l-77 -106h-40l37 106h80zM149 336v-288h395v-48h-454v699h442v-49h-383v-265h333v-49h-333z" />
<glyph unicode="&#xca;" horiz-adv-x="599" d="M370 749l-60 81l-61 -81h-56l87 111h58l89 -111h-57zM149 336v-288h395v-48h-454v699h442v-49h-383v-265h333v-49h-333z" />
<glyph unicode="&#xcb;" horiz-adv-x="599" d="M267 759h-74v81h74v-81zM426 759h-74v81h74v-81zM149 336v-288h395v-48h-454v699h442v-49h-383v-265h333v-49h-333z" />
<glyph unicode="&#xcc;" horiz-adv-x="239" d="M153 754h-40l-77 106h81zM90 0v699h59v-699h-59z" />
<glyph unicode="&#xcd;" horiz-adv-x="239" d="M204 860l-77 -106h-40l37 106h80zM90 0v699h59v-699h-59z" />
<glyph unicode="&#xce;" horiz-adv-x="239" d="M180 749l-60 81l-61 -81h-56l87 111h58l89 -111h-57zM90 0v699h59v-699h-59z" />
<glyph unicode="&#xcf;" horiz-adv-x="239" d="M77 759h-74v81h74v-81zM236 759h-74v81h74v-81zM90 0v699h59v-699h-59z" />
<glyph unicode="&#xd0;" horiz-adv-x="738" d="M304 699q194 0 283 -84t89 -265t-89 -265.5t-283 -84.5h-202v327h-80v45h80v327h202zM278 47q190 0 264 68t74 235t-74 234t-264 67h-117v-279h186v-45h-186v-280h117z" />
<glyph unicode="&#xd1;" horiz-adv-x="719" d="M510 839q-11 -38 -29.5 -58.5t-52.5 -20.5q-21 0 -61 16t-59 16q-34 0 -47 -36h-39v2q11 39 29.5 60t53.5 21q21 0 61 -16t59 -16q34 0 45 33zM629 699v-699h-70l-413 615v-615h-56v699h68l414 -617v617h57z" />
<glyph unicode="&#xd2;" horiz-adv-x="785" d="M426 773h-40l-77 106h81zM393 -20q-147 0 -242.5 104t-95.5 266q0 161 95.5 264.5t242.5 103.5t242 -103.5t95 -264.5q0 -162 -95 -266t-242 -104zM393 670q-125 0 -201.5 -88.5t-76.5 -231.5t77 -232.5t201 -89.5t200.5 89t76.5 233q0 143 -76.5 231.5t-200.5 88.5z" />
<glyph unicode="&#xd3;" horiz-adv-x="785" d="M477 879l-77 -106h-40l37 106h80zM393 -20q-147 0 -242.5 104t-95.5 266q0 161 95.5 264.5t242.5 103.5t242 -103.5t95 -264.5q0 -162 -95 -266t-242 -104zM393 670q-125 0 -201.5 -88.5t-76.5 -231.5t77 -232.5t201 -89.5t200.5 89t76.5 233q0 143 -76.5 231.5 t-200.5 88.5z" />
<glyph unicode="&#xd4;" horiz-adv-x="785" d="M453 768l-60 81l-61 -81h-56l87 111h58l89 -111h-57zM393 -20q-147 0 -242.5 104t-95.5 266q0 161 95.5 264.5t242.5 103.5t242 -103.5t95 -264.5q0 -162 -95 -266t-242 -104zM393 670q-125 0 -201.5 -88.5t-76.5 -231.5t77 -232.5t201 -89.5t200.5 89t76.5 233 q0 143 -76.5 231.5t-200.5 88.5z" />
<glyph unicode="&#xd5;" horiz-adv-x="785" d="M543 858q-11 -38 -29.5 -58.5t-52.5 -20.5q-21 0 -61 16t-59 16q-33 0 -47 -36h-39v2q11 39 29.5 60t53.5 21q22 0 62 -16t58 -16q34 0 45 33zM393 -20q-147 0 -242.5 104t-95.5 266q0 161 95.5 264.5t242.5 103.5t242 -103.5t95 -264.5q0 -162 -95 -266t-242 -104z M393 670q-125 0 -201.5 -88.5t-76.5 -231.5t77 -232.5t201 -89.5t200.5 89t76.5 233q0 143 -76.5 231.5t-200.5 88.5z" />
<glyph unicode="&#xd6;" horiz-adv-x="785" d="M350 778h-74v81h74v-81zM509 778h-74v81h74v-81zM393 -20q-147 0 -242.5 104t-95.5 266q0 161 95.5 264.5t242.5 103.5t242 -103.5t95 -264.5q0 -162 -95 -266t-242 -104zM393 670q-125 0 -201.5 -88.5t-76.5 -231.5t77 -232.5t201 -89.5t200.5 89t76.5 233 q0 143 -76.5 231.5t-200.5 88.5z" />
<glyph unicode="&#xd7;" horiz-adv-x="638" d="M319 390l212 212l40 -40l-211 -213l211 -212l-40 -40l-212 212l-212 -212l-40 40l212 212l-211 213l40 40z" />
<glyph unicode="&#xd8;" horiz-adv-x="785" d="M569 669q75 -46 118 -130t43 -189q0 -162 -95 -266t-242 -104q-77 0 -140 30l-45 -93h-44l54 112q-76 46 -119.5 130.5t-43.5 190.5q0 161 95.5 264.5t242.5 103.5q75 0 141 -30l48 100h44zM115 350q0 -91 33 -162.5t92 -113.5l273 570q-55 26 -120 26 q-125 0 -201.5 -88.5t-76.5 -231.5zM393 28q124 0 200.5 89t76.5 233q0 91 -32.5 162t-90.5 112l-273 -570q54 -26 119 -26z" />
<glyph unicode="&#xd9;" horiz-adv-x="670" d="M369 754h-40l-77 106h81zM335 -20q-123 0 -184 66t-61 215v438h58v-434q0 -126 43.5 -181.5t143.5 -55.5t143.5 55.5t43.5 181.5v434h58v-438q0 -149 -61 -215t-184 -66z" />
<glyph unicode="&#xda;" horiz-adv-x="670" d="M420 860l-77 -106h-40l37 106h80zM335 -20q-123 0 -184 66t-61 215v438h58v-434q0 -126 43.5 -181.5t143.5 -55.5t143.5 55.5t43.5 181.5v434h58v-438q0 -149 -61 -215t-184 -66z" />
<glyph unicode="&#xdb;" horiz-adv-x="670" d="M396 749l-60 81l-61 -81h-56l87 111h58l89 -111h-57zM335 -20q-123 0 -184 66t-61 215v438h58v-434q0 -126 43.5 -181.5t143.5 -55.5t143.5 55.5t43.5 181.5v434h58v-438q0 -149 -61 -215t-184 -66z" />
<glyph unicode="&#xdc;" horiz-adv-x="670" d="M293 759h-74v81h74v-81zM452 759h-74v81h74v-81zM335 -20q-123 0 -184 66t-61 215v438h58v-434q0 -126 43.5 -181.5t143.5 -55.5t143.5 55.5t43.5 181.5v434h58v-438q0 -149 -61 -215t-184 -66z" />
<glyph unicode="&#xdd;" horiz-adv-x="562" d="M364 860l-77 -106h-40l37 106h80zM542 699l-234 -376v-323h-59v323l-229 376h69l189 -316l193 316h71z" />
<glyph unicode="&#xde;" horiz-adv-x="594" d="M336 572q91 0 151 -62.5t60 -155.5t-60 -155.5t-151 -62.5h-188v-136h-58v699h58v-127h188zM335 186q71 0 116 47t45 121q0 73 -45.5 120.5t-115.5 47.5h-187v-336h187z" />
<glyph unicode="&#xdf;" horiz-adv-x="561" d="M511 180q0 -92 -64.5 -137t-164.5 -45h-7v41h3q74 0 125.5 35.5t51.5 106.5q0 127 -180 152v37q139 46 139 170q0 65 -34.5 100t-93.5 35q-67 0 -103 -47t-36 -135v-493h-55v492q0 103 53 164t145 61q80 0 130.5 -46.5t50.5 -127.5q0 -63 -33 -111t-93 -71 q75 -15 120.5 -59t45.5 -122z" />
<glyph unicode="&#xe0;" horiz-adv-x="529" d="M297 571h-40l-77 106h81zM266 506q96 0 138.5 -41.5t42.5 -145.5v-319h-56v66q-55 -81 -175 -81q-79 0 -121.5 37t-42.5 103q0 27 6.5 48.5t22.5 37t29 25.5t40.5 19t42 13t46.5 11q4 1 7 1.5t6 1.5q100 23 139 42q-1 82 -28 110t-97 28q-65 0 -94.5 -19t-37.5 -60h-55 q14 123 187 123zM225 27q75 0 120.5 40.5t45.5 109.5v106q-40 -20 -118 -35q-34 -7 -50.5 -11.5t-43 -14.5t-39 -21.5t-22.5 -31t-10 -45.5q0 -97 117 -97z" />
<glyph unicode="&#xe1;" horiz-adv-x="529" d="M348 677l-77 -106h-40l37 106h80zM266 506q96 0 138.5 -41.5t42.5 -145.5v-319h-56v66q-55 -81 -175 -81q-79 0 -121.5 37t-42.5 103q0 27 6.5 48.5t22.5 37t29 25.5t40.5 19t42 13t46.5 11q4 1 7 1.5t6 1.5q100 23 139 42q-1 82 -28 110t-97 28q-65 0 -94.5 -19 t-37.5 -60h-55q14 123 187 123zM225 27q75 0 120.5 40.5t45.5 109.5v106q-40 -20 -118 -35q-34 -7 -50.5 -11.5t-43 -14.5t-39 -21.5t-22.5 -31t-10 -45.5q0 -97 117 -97z" />
<glyph unicode="&#xe2;" horiz-adv-x="529" d="M264 647l-61 -81h-56l87 111h58l89 -111h-57zM266 506q96 0 138.5 -41.5t42.5 -145.5v-319h-56v66q-55 -81 -175 -81q-79 0 -121.5 37t-42.5 103q0 27 6.5 48.5t22.5 37t29 25.5t40.5 19t42 13t46.5 11q4 1 7 1.5t6 1.5q100 23 139 42q-1 82 -28 110t-97 28 q-65 0 -94.5 -19t-37.5 -60h-55q14 123 187 123zM225 27q75 0 120.5 40.5t45.5 109.5v106q-40 -20 -118 -35q-34 -7 -50.5 -11.5t-43 -14.5t-39 -21.5t-22.5 -31t-10 -45.5q0 -97 117 -97z" />
<glyph unicode="&#xe3;" horiz-adv-x="529" d="M212 609q-34 0 -47 -36h-39v2q11 39 29.5 60t53.5 21q21 0 61 -16t59 -16q34 0 45 33l40 -1q-11 -38 -29.5 -58.5t-52.5 -20.5q-21 0 -61 16t-59 16zM266 506q96 0 138.5 -41.5t42.5 -145.5v-319h-56v66q-55 -81 -175 -81q-79 0 -121.5 37t-42.5 103q0 27 6.5 48.5 t22.5 37t29 25.5t40.5 19t42 13t46.5 11q4 1 7 1.5t6 1.5q100 23 139 42q-1 82 -28 110t-97 28q-65 0 -94.5 -19t-37.5 -60h-55q14 123 187 123zM225 27q75 0 120.5 40.5t45.5 109.5v106q-40 -20 -118 -35q-34 -7 -50.5 -11.5t-43 -14.5t-39 -21.5t-22.5 -31t-10 -45.5 q0 -97 117 -97z" />
<glyph unicode="&#xe4;" horiz-adv-x="529" d="M221 657v-81h-74v81h74zM380 657v-81h-74v81h74zM266 506q96 0 138.5 -41.5t42.5 -145.5v-319h-56v66q-55 -81 -175 -81q-79 0 -121.5 37t-42.5 103q0 27 6.5 48.5t22.5 37t29 25.5t40.5 19t42 13t46.5 11q4 1 7 1.5t6 1.5q100 23 139 42q-1 82 -28 110t-97 28 q-65 0 -94.5 -19t-37.5 -60h-55q14 123 187 123zM225 27q75 0 120.5 40.5t45.5 109.5v106q-40 -20 -118 -35q-34 -7 -50.5 -11.5t-43 -14.5t-39 -21.5t-22.5 -31t-10 -45.5q0 -97 117 -97z" />
<glyph unicode="&#xe5;" horiz-adv-x="529" d="M264 546q-36 0 -63 25t-27 61t27 61.5t63 25.5t63 -25t27 -61t-27 -61.5t-63 -25.5zM264 690q-23 0 -40 -17t-17 -40t17 -40t40 -17t40 16.5t17 39.5q0 24 -16.5 41t-40.5 17zM266 506q96 0 138.5 -41.5t42.5 -145.5v-319h-56v66q-55 -81 -175 -81q-79 0 -121.5 37 t-42.5 103q0 27 6.5 48.5t22.5 37t29 25.5t40.5 19t42 13t46.5 11q4 1 7 1.5t6 1.5q100 23 139 42q-1 82 -28 110t-97 28q-65 0 -94.5 -19t-37.5 -60h-55q14 123 187 123zM225 27q75 0 120.5 40.5t45.5 109.5v106q-40 -20 -118 -35q-34 -7 -50.5 -11.5t-43 -14.5t-39 -21.5 t-22.5 -31t-10 -45.5q0 -97 117 -97z" />
<glyph unicode="&#xe6;" horiz-adv-x="857" d="M445 246q0 -219 162 -219q103 0 137 84h53q-47 -125 -191 -125q-131 0 -183 113q-53 -113 -200 -113q-80 0 -125.5 34t-45.5 104q0 66 40 99.5t111 50.5q8 2 39.5 8.5t50 11t47.5 14t51 20.5q1 73 -25 103t-97 30q-121 0 -135 -80h-55q16 121 188 121q68 0 109 -22.5 t56 -76.5q52 101 167 101q95 0 149 -62q57 -65 57 -196h-360zM750 286q-4 82 -41 130.5t-106 48.5q-72 0 -111 -51.5t-45 -127.5h303zM391 286q-49 -24 -143 -44q-31 -7 -50.5 -13t-43 -18.5t-35 -33.5t-11.5 -51q0 -50 33.5 -76t86.5 -26q50 0 93.5 22.5t60.5 65.5 q9 24 9 60v114z" />
<glyph unicode="&#xe7;" horiz-adv-x="508" d="M461 106q-52 -116 -179 -120l-38 -39q44 -6 67.5 -20.5t23.5 -53.5q0 -38 -27 -61t-66 -23q-53 0 -90 34l25 26q29 -26 66 -26q23 0 38.5 13t15.5 35q0 18 -8.5 29t-26.5 15t-29 5t-31 1v23l40 44q-96 10 -144.5 81.5t-48.5 176.5q0 113 56 186.5t167 73.5 q132 0 185 -112h-59q-36 66 -124 66q-45 0 -79 -18.5t-52.5 -50.5t-27.5 -68t-9 -77q0 -56 15 -102t54 -79t99 -33q90 0 128 74h59z" />
<glyph unicode="&#xe8;" horiz-adv-x="509" d="M290 569h-40l-77 106h81zM101 246q0 -215 165 -215q104 0 132 79h55q-48 -125 -191 -125q-108 0 -161.5 73.5t-53.5 185.5q0 111 52.5 185.5t160.5 74.5q106 0 154.5 -72.5t48.5 -185.5h-362zM406 286q-3 80 -40.5 126t-106.5 46q-73 0 -111.5 -48.5t-44.5 -123.5h303z " />
<glyph unicode="&#xe9;" horiz-adv-x="509" d="M341 675l-77 -106h-40l37 106h80zM101 246q0 -215 165 -215q104 0 132 79h55q-48 -125 -191 -125q-108 0 -161.5 73.5t-53.5 185.5q0 111 52.5 185.5t160.5 74.5q106 0 154.5 -72.5t48.5 -185.5h-362zM406 286q-3 80 -40.5 126t-106.5 46q-73 0 -111.5 -48.5 t-44.5 -123.5h303z" />
<glyph unicode="&#xea;" horiz-adv-x="509" d="M317 564l-60 81l-61 -81h-56l87 111h58l89 -111h-57zM101 246q0 -215 165 -215q104 0 132 79h55q-48 -125 -191 -125q-108 0 -161.5 73.5t-53.5 185.5q0 111 52.5 185.5t160.5 74.5q106 0 154.5 -72.5t48.5 -185.5h-362zM406 286q-3 80 -40.5 126t-106.5 46 q-73 0 -111.5 -48.5t-44.5 -123.5h303z" />
<glyph unicode="&#xeb;" horiz-adv-x="509" d="M214 574h-74v81h74v-81zM373 574h-74v81h74v-81zM101 246q0 -215 165 -215q104 0 132 79h55q-48 -125 -191 -125q-108 0 -161.5 73.5t-53.5 185.5q0 111 52.5 185.5t160.5 74.5q106 0 154.5 -72.5t48.5 -185.5h-362zM406 286q-3 80 -40.5 126t-106.5 46 q-73 0 -111.5 -48.5t-44.5 -123.5h303z" />
<glyph unicode="&#xec;" horiz-adv-x="230" d="M148 561h-40l-77 106h81zM143 0h-56v490h56v-490z" />
<glyph unicode="&#xed;" horiz-adv-x="230" d="M199 667l-77 -106h-40l37 106h80zM143 0h-56v490h56v-490z" />
<glyph unicode="&#xee;" horiz-adv-x="230" d="M175 556l-60 81l-61 -81h-56l87 111h58l89 -111h-57zM143 0h-56v490h56v-490z" />
<glyph unicode="&#xef;" horiz-adv-x="230" d="M72 566h-74v81h74v-81zM231 566h-74v81h74v-81zM143 0h-56v490h56v-490z" />
<glyph unicode="&#xf0;" horiz-adv-x="544" d="M492 252q0 -115 -55 -191t-165 -76q-108 0 -164 74.5t-56 186.5t56 186t164 74q64 0 109 -34q-43 70 -118 124l-167 -83v53l121 60q-40 24 -149 73h113q46 -18 92 -46l138 68v-53l-93 -46q174 -131 174 -370zM435 246q0 43 -8 80t-26 70t-51 52t-78 19q-85 0 -124 -65 t-39 -156q0 -43 8 -80.5t26 -70.5t51 -52t78 -19t78 19.5t51 52.5t26 70t8 80z" />
<glyph unicode="&#xf1;" horiz-adv-x="545" d="M423 656q-11 -38 -29.5 -58.5t-52.5 -20.5q-21 0 -61 16t-59 16q-33 0 -47 -36h-39v2q11 39 29.5 60t53.5 21q22 0 62 -16t58 -16q34 0 45 33zM407 296q0 79 -23.5 123t-89.5 44q-58 0 -95 -34t-49 -89q-7 -32 -7 -97v-243h-56v490h56v-79q51 94 162 94q90 0 124 -52.5 t34 -151.5v-301h-56v296z" />
<glyph unicode="&#xf2;" horiz-adv-x="535" d="M301 570h-40l-77 106h81zM488 246q0 -112 -55.5 -186.5t-164.5 -74.5q-108 0 -164.5 74.5t-56.5 186.5t56.5 185.5t164.5 73.5q109 0 164.5 -73.5t55.5 -185.5zM430 245q0 42 -8 78.5t-25.5 68.5t-50 50.5t-77.5 18.5q-86 0 -125 -62.5t-39 -155.5q0 -90 38 -152t125 -62 q45 0 78 18.5t50.5 50.5t25.5 68t8 79z" />
<glyph unicode="&#xf3;" horiz-adv-x="535" d="M352 676l-77 -106h-40l37 106h80zM488 246q0 -112 -55.5 -186.5t-164.5 -74.5q-108 0 -164.5 74.5t-56.5 186.5t56.5 185.5t164.5 73.5q109 0 164.5 -73.5t55.5 -185.5zM430 245q0 42 -8 78.5t-25.5 68.5t-50 50.5t-77.5 18.5q-86 0 -125 -62.5t-39 -155.5q0 -90 38 -152 t125 -62q45 0 78 18.5t50.5 50.5t25.5 68t8 79z" />
<glyph unicode="&#xf4;" horiz-adv-x="535" d="M328 565l-60 81l-61 -81h-56l87 111h58l89 -111h-57zM488 246q0 -112 -55.5 -186.5t-164.5 -74.5q-108 0 -164.5 74.5t-56.5 186.5t56.5 185.5t164.5 73.5q109 0 164.5 -73.5t55.5 -185.5zM430 245q0 42 -8 78.5t-25.5 68.5t-50 50.5t-77.5 18.5q-86 0 -125 -62.5 t-39 -155.5q0 -90 38 -152t125 -62q45 0 78 18.5t50.5 50.5t25.5 68t8 79z" />
<glyph unicode="&#xf5;" horiz-adv-x="535" d="M418 655q-11 -38 -29.5 -58.5t-52.5 -20.5q-21 0 -61 16t-59 16q-34 0 -47 -36h-39v2q11 39 29.5 60t53.5 21q22 0 61.5 -16t58.5 -16q34 0 45 33zM488 246q0 -112 -55.5 -186.5t-164.5 -74.5q-108 0 -164.5 74.5t-56.5 186.5t56.5 185.5t164.5 73.5q109 0 164.5 -73.5 t55.5 -185.5zM430 245q0 42 -8 78.5t-25.5 68.5t-50 50.5t-77.5 18.5q-86 0 -125 -62.5t-39 -155.5q0 -90 38 -152t125 -62q45 0 78 18.5t50.5 50.5t25.5 68t8 79z" />
<glyph unicode="&#xf6;" horiz-adv-x="535" d="M225 575h-74v81h74v-81zM384 575h-74v81h74v-81zM488 246q0 -112 -55.5 -186.5t-164.5 -74.5q-108 0 -164.5 74.5t-56.5 186.5t56.5 185.5t164.5 73.5q109 0 164.5 -73.5t55.5 -185.5zM430 245q0 42 -8 78.5t-25.5 68.5t-50 50.5t-77.5 18.5q-86 0 -125 -62.5t-39 -155.5 q0 -90 38 -152t125 -62q45 0 78 18.5t50.5 50.5t25.5 68t8 79z" />
<glyph unicode="&#xf7;" horiz-adv-x="680" d="M391 534q0 -22 -15.5 -38t-38.5 -16q-22 0 -37.5 16t-15.5 38t15.5 37.5t37.5 15.5t38 -15.5t16 -37.5zM623 317h-566v58h566v-58zM391 157q0 -22 -16 -37.5t-38 -15.5t-37.5 15.5t-15.5 37.5t15.5 38t37.5 16q23 0 38.5 -15.5t15.5 -38.5z" />
<glyph unicode="&#xf8;" horiz-adv-x="535" d="M424 442q64 -71 64 -196q0 -112 -55.5 -186.5t-164.5 -74.5q-70 0 -120 33l-51 -78h-42l66 101q-74 71 -74 205q0 112 56.5 185.5t164.5 73.5q75 0 129 -39l48 73h42zM105 243q0 -104 43 -160l223 342q-41 36 -102 36q-86 0 -125 -62.5t-39 -155.5zM268 29q45 0 78 18.5 t50.5 50.5t25.5 68t8 79q0 94 -36 151l-220 -338q37 -29 94 -29z" />
<glyph unicode="&#xf9;" horiz-adv-x="545" d="M306 562h-40l-77 106h81zM403 79q-51 -94 -162 -94q-53 0 -94 26t-54 75q-11 37 -11 113v291h56v-296q0 -89 28 -127t89 -38q55 0 92 33.5t48 87.5q7 32 7 97v243h56v-490h-56z" />
<glyph unicode="&#xfa;" horiz-adv-x="545" d="M357 668l-77 -106h-40l37 106h80zM403 79q-51 -94 -162 -94q-53 0 -94 26t-54 75q-11 37 -11 113v291h56v-296q0 -89 28 -127t89 -38q55 0 92 33.5t48 87.5q7 32 7 97v243h56v-490h-56z" />
<glyph unicode="&#xfb;" horiz-adv-x="545" d="M333 557l-60 81l-61 -81h-56l87 111h58l89 -111h-57zM403 79q-51 -94 -162 -94q-53 0 -94 26t-54 75q-11 37 -11 113v291h56v-296q0 -89 28 -127t89 -38q55 0 92 33.5t48 87.5q7 32 7 97v243h56v-490h-56z" />
<glyph unicode="&#xfc;" horiz-adv-x="545" d="M230 567h-74v81h74v-81zM389 567h-74v81h74v-81zM403 79q-51 -94 -162 -94q-53 0 -94 26t-54 75q-11 37 -11 113v291h56v-296q0 -89 28 -127t89 -38q55 0 92 33.5t48 87.5q7 32 7 97v243h56v-490h-56z" />
<glyph unicode="&#xfd;" horiz-adv-x="463" d="M316 667l-77 -106h-40l37 106h80zM390 490h56l-222 -602q-45 -120 -137 -120q-22 0 -38 4l4 46q18 -4 29 -4q22 0 37.5 6.5t26 21.5t16 27t14.5 36l38 100l-197 485h58l163 -411z" />
<glyph unicode="&#xfe;" d="M525 245q0 -106 -56.5 -182.5t-157.5 -76.5q-124 0 -175 97v-308h-49v924h49v-307q56 111 179 111q66 0 115 -39t72 -96.5t23 -122.5zM469 245q0 84 -41 147t-121 63q-81 0 -124 -62.5t-43 -147.5q0 -86 42.5 -148.5t124.5 -62.5q81 0 121.5 62.5t40.5 148.5z" />
<glyph unicode="&#xff;" horiz-adv-x="463" d="M189 647v-81h-74v81h74zM348 647v-81h-74v81h74zM390 490h56l-222 -602q-45 -120 -137 -120q-22 0 -38 4l4 46q18 -4 29 -4q22 0 37.5 6.5t26 21.5t16 27t14.5 36l38 100l-197 485h58l163 -411z" />
<glyph unicode="&#x100;" horiz-adv-x="603" d="M412 769h-215v47h215v-47zM522 0l-75 225h-288l-78 -225h-62l249 699h77l239 -699h-62zM432 271l-127 377l-130 -377h257z" />
<glyph unicode="&#x101;" horiz-adv-x="529" d="M371 633v-47h-215v47h215zM266 506q96 0 138.5 -41.5t42.5 -145.5v-319h-56v66q-55 -81 -175 -81q-79 0 -121.5 37t-42.5 103q0 27 6.5 48.5t22.5 37t29 25.5t40.5 19t42 13t46.5 11q4 1 7 1.5t6 1.5q100 23 139 42q-1 82 -28 110t-97 28q-65 0 -94.5 -19t-37.5 -60h-55 q14 123 187 123zM225 27q75 0 120.5 40.5t45.5 109.5v106q-40 -20 -118 -35q-34 -7 -50.5 -11.5t-43 -14.5t-39 -21.5t-22.5 -31t-10 -45.5q0 -97 117 -97z" />
<glyph unicode="&#x102;" horiz-adv-x="603" d="M431 863q-5 -50 -40.5 -82.5t-85.5 -32.5t-85.5 32.5t-40.5 82.5h42q5 -32 28.5 -54.5t55.5 -22.5q33 0 57 22t28 55h41zM522 0l-75 225h-288l-78 -225h-62l249 699h77l239 -699h-62zM432 271l-127 377l-130 -377h257z" />
<glyph unicode="&#x103;" horiz-adv-x="529" d="M264 565q-50 0 -85.5 32.5t-40.5 82.5h42q5 -32 28.5 -54.5t55.5 -22.5q33 0 57 22t28 55h41q-5 -50 -40.5 -82.5t-85.5 -32.5zM266 506q96 0 138.5 -41.5t42.5 -145.5v-319h-56v66q-55 -81 -175 -81q-79 0 -121.5 37t-42.5 103q0 27 6.5 48.5t22.5 37t29 25.5t40.5 19 t42 13t46.5 11q4 1 7 1.5t6 1.5q100 23 139 42q-1 82 -28 110t-97 28q-65 0 -94.5 -19t-37.5 -60h-55q14 123 187 123zM225 27q75 0 120.5 40.5t45.5 109.5v106q-40 -20 -118 -35q-34 -7 -50.5 -11.5t-43 -14.5t-39 -21.5t-22.5 -31t-10 -45.5q0 -97 117 -97z" />
<glyph unicode="&#x104;" horiz-adv-x="603" d="M541 -117q17 -26 34 -37l-42 -27q-25 15 -45 46q-42 69 40 135h-6l-75 225h-288l-78 -225h-62l249 699h77l239 -699q-82 -58 -43 -117zM175 271h257l-127 377z" />
<glyph unicode="&#x105;" horiz-adv-x="529" d="M447 0q-82 -58 -43 -117q17 -26 34 -37l-42 -27q-25 15 -45 46q-42 69 40 135v66q-55 -81 -175 -81q-79 0 -121.5 37t-42.5 103q0 27 6.5 48.5t22.5 37t29 25.5t40.5 19t42 13t46.5 11q4 1 7 1.5t6 1.5q100 23 139 42q-1 82 -28 110t-97 28q-65 0 -94.5 -19t-37.5 -60 h-55q14 123 187 123q96 0 138.5 -41.5t42.5 -145.5v-319zM225 27q75 0 120.5 40.5t45.5 109.5v106q-40 -20 -118 -35q-34 -7 -50.5 -11.5t-43 -14.5t-39 -21.5t-22.5 -31t-10 -45.5q0 -97 117 -97z" />
<glyph unicode="&#x106;" horiz-adv-x="738" d="M473 880l-77 -106h-40l37 106h80zM634 518q-20 68 -82 109.5t-151 41.5q-131 0 -207.5 -94t-76.5 -225t76.5 -225.5t204.5 -94.5q84 0 147.5 41.5t90.5 109.5h60q-34 -91 -114 -146t-186 -55q-152 0 -245.5 108.5t-93.5 260.5q0 153 96 261.5t250 108.5q109 0 189 -56 t102 -145h-60z" />
<glyph unicode="&#x107;" horiz-adv-x="508" d="M355 681l-77 -106h-40l37 106h80zM461 106q-53 -120 -189 -120q-111 0 -167 73.5t-56 186.5t56 186.5t167 73.5q132 0 185 -112h-59q-36 66 -124 66q-45 0 -79 -18.5t-52.5 -50.5t-27.5 -68t-9 -77q0 -56 15 -102t54 -79t99 -33q90 0 128 74h59z" />
<glyph unicode="&#x10c;" horiz-adv-x="738" d="M417 769h-58l-87 111h56l61 -82l60 82h57zM634 518q-20 68 -82 109.5t-151 41.5q-131 0 -207.5 -94t-76.5 -225t76.5 -225.5t204.5 -94.5q84 0 147.5 41.5t90.5 109.5h60q-34 -91 -114 -146t-186 -55q-152 0 -245.5 108.5t-93.5 260.5q0 153 96 261.5t250 108.5 q109 0 189 -56t102 -145h-60z" />
<glyph unicode="&#x10d;" horiz-adv-x="508" d="M299 570h-58l-87 111h56l61 -82l60 82h57zM461 106q-53 -120 -189 -120q-111 0 -167 73.5t-56 186.5t56 186.5t167 73.5q132 0 185 -112h-59q-36 66 -124 66q-45 0 -79 -18.5t-52.5 -50.5t-27.5 -68t-9 -77q0 -56 15 -102t54 -79t99 -33q90 0 128 74h59z" />
<glyph unicode="&#x10e;" horiz-adv-x="726" d="M341 749h-58l-87 111h56l61 -82l60 82h57zM292 0h-202v699h202q194 0 283 -84t89 -265t-89 -265.5t-283 -84.5zM266 651h-117v-604h117q190 0 264 68t74 235t-74 234t-264 67z" />
<glyph unicode="&#x10f;" horiz-adv-x="599" d="M436 86q-53 -100 -175 -100q-101 0 -157.5 76.5t-56.5 182.5q0 102 57.5 180.5t154.5 78.5q118 0 170 -94v289h56v-699h-49v86zM639 657q0 -65 -5.5 -94t-26.5 -77h-16q19 60 19 130h-36v82h65v-41zM432 245q0 86 -43 148.5t-125 62.5q-80 0 -120.5 -63t-40.5 -148 t40 -148t121 -63q82 0 125 62.5t43 148.5z" />
<glyph unicode="&#x110;" horiz-adv-x="738" d="M304 699q194 0 283 -84t89 -265t-89 -265.5t-283 -84.5h-202v327h-80v45h80v327h202zM278 47q190 0 264 68t74 235t-74 234t-264 67h-117v-279h186v-45h-186v-280h117z" />
<glyph unicode="&#x111;" d="M548 631v-48h-63v-583h-49v86q-53 -100 -175 -100q-101 0 -157.5 76.5t-56.5 182.5q0 102 57.5 180.5t154.5 78.5q118 0 170 -94v173h-204v48h204v68h56v-68h63zM264 34q82 0 125 62.5t43 148.5t-43 148.5t-125 62.5q-80 0 -120.5 -63t-40.5 -148t40 -148t121 -63z" />
<glyph unicode="&#x112;" horiz-adv-x="599" d="M417 769h-215v47h215v-47zM149 336v-288h395v-48h-454v699h442v-49h-383v-265h333v-49h-333z" />
<glyph unicode="&#x113;" horiz-adv-x="509" d="M364 584h-215v47h215v-47zM101 246q0 -215 165 -215q104 0 132 79h55q-48 -125 -191 -125q-108 0 -161.5 73.5t-53.5 185.5q0 111 52.5 185.5t160.5 74.5q106 0 154.5 -72.5t48.5 -185.5h-362zM406 286q-3 80 -40.5 126t-106.5 46q-73 0 -111.5 -48.5t-44.5 -123.5h303z " />
<glyph unicode="&#x116;" horiz-adv-x="599" d="M347 759h-74v81h74v-81zM149 336v-288h395v-48h-454v699h442v-49h-383v-265h333v-49h-333z" />
<glyph unicode="&#x117;" horiz-adv-x="509" d="M294 574h-74v81h74v-81zM101 246q0 -215 165 -215q104 0 132 79h55q-48 -125 -191 -125q-108 0 -161.5 73.5t-53.5 185.5q0 111 52.5 185.5t160.5 74.5q106 0 154.5 -72.5t48.5 -185.5h-362zM406 286q-3 80 -40.5 126t-106.5 46q-73 0 -111.5 -48.5t-44.5 -123.5h303z " />
<glyph unicode="&#x118;" horiz-adv-x="599" d="M544 0q-82 -58 -43 -117q17 -26 34 -37l-42 -27q-25 15 -45 46q-42 69 40 135h-398v699h442v-49h-383v-265h333v-49h-333v-288h395v-48z" />
<glyph unicode="&#x119;" horiz-adv-x="509" d="M266 31q104 0 132 79h55q-39 -102 -145 -121q-64 -53 -29 -106q17 -26 34 -37l-42 -27q-25 15 -45 46q-37 59 24 120q-102 5 -152.5 78t-50.5 181q0 111 52.5 185.5t160.5 74.5q106 0 154.5 -72.5t48.5 -185.5h-362q0 -215 165 -215zM259 458q-73 0 -111.5 -48.5 t-44.5 -123.5h303q-3 80 -40.5 126t-106.5 46z" />
<glyph unicode="&#x11a;" horiz-adv-x="599" d="M338 749h-58l-87 111h56l61 -82l60 82h57zM149 336v-288h395v-48h-454v699h442v-49h-383v-265h333v-49h-333z" />
<glyph unicode="&#x11b;" horiz-adv-x="509" d="M285 564h-58l-87 111h56l61 -82l60 82h57zM101 246q0 -215 165 -215q104 0 132 79h55q-48 -125 -191 -125q-108 0 -161.5 73.5t-53.5 185.5q0 111 52.5 185.5t160.5 74.5q106 0 154.5 -72.5t48.5 -185.5h-362zM406 286q-3 80 -40.5 126t-106.5 46q-73 0 -111.5 -48.5 t-44.5 -123.5h303z" />
<glyph unicode="&#x122;" horiz-adv-x="798" d="M400 -20q-109 0 -189 52.5t-118 135t-38 182.5q0 155 92 262t254 107q108 0 185 -51t108 -150h-60q-27 75 -87.5 113t-144.5 38q-133 0 -210 -87.5t-77 -230.5q0 -145 78 -233t207 -88q125 0 196.5 80t71.5 199h-223v50h283v-7q0 -164 -85.5 -268t-242.5 -104zM429 -107 q0 -65 -5.5 -94t-26.5 -77h-16q19 60 19 130h-36v82h65v-41z" />
<glyph unicode="&#x123;" d="M311 617v-41h-65v82h36q0 70 -19 130h16q21 -48 26.5 -77t5.5 -94zM485 23q0 -114 -28 -165q-50 -91 -180 -91q-83 0 -139 42.5t-63 124.5h57q19 -120 148 -120q78 0 115 43q13 15 20.5 34.5t10.5 47.5t3.5 44t0 51.5t-0.5 42.5q-55 -92 -166 -92q-102 0 -159 76.5 t-57 181.5q0 67 23 124.5t74 97.5t122 40q119 0 169 -102v87h50v-467zM432 245q0 86 -43 148.5t-124 62.5t-121.5 -63t-40.5 -148q0 -53 15.5 -99t53.5 -79.5t94 -33.5q55 0 93.5 32t55.5 79t17 101z" />
<glyph unicode="&#x12a;" horiz-adv-x="239" d="M227 769h-215v47h215v-47zM90 0v699h59v-699h-59z" />
<glyph unicode="&#x12b;" horiz-adv-x="230" d="M222 576h-215v47h215v-47zM143 0h-56v490h56v-490z" />
<glyph unicode="&#x12e;" horiz-adv-x="239" d="M149 0q-82 -58 -43 -117q17 -26 34 -37l-42 -27q-25 15 -45 46q-42 69 40 135h-3v699h59v-699z" />
<glyph unicode="&#x12f;" horiz-adv-x="230" d="M143 0q-82 -58 -43 -117q17 -26 34 -37l-42 -27q-25 15 -45 46q-42 69 40 135v490h56v-490z" />
<glyph unicode="&#x131;" horiz-adv-x="230" d="M143 0h-56v490h56v-490z" />
<glyph unicode="&#x136;" horiz-adv-x="609" d="M503 699h64l-262 -284l281 -415h-70l-250 370l-119 -125v-245h-57v699h57v-389zM343 -107q0 -65 -5.5 -94t-26.5 -77h-16q19 60 19 130h-36v82h65v-41z" />
<glyph unicode="&#x137;" horiz-adv-x="459" d="M373 490h62l-226 -226l232 -264h-68l-230 255v-255h-56v699h56v-438zM275 -106q0 -65 -5.5 -94t-26.5 -77h-16q19 60 19 130h-36v82h65v-41z" />
<glyph unicode="&#x139;" horiz-adv-x="532" d="M301 860l-77 -106h-40l37 106h80zM149 699v-651h346v-48h-405v699h59z" />
<glyph unicode="&#x13a;" horiz-adv-x="266" d="M197 860l-77 -106h-40l37 106h80zM197 -3q-60 0 -85 30t-25 93v579h56v-577q0 -47 13.5 -62t57.5 -15v-48h-17z" />
<glyph unicode="&#x13b;" horiz-adv-x="532" d="M149 699v-651h346v-48h-405v699h59zM331 -107q0 -65 -5.5 -94t-26.5 -77h-16q19 60 19 130h-36v82h65v-41z" />
<glyph unicode="&#x13c;" horiz-adv-x="266" d="M197 -3q-60 0 -85 30t-25 93v579h56v-577q0 -47 13.5 -62t57.5 -15v-48h-17zM188 -109q0 -65 -5.5 -94t-26.5 -77h-16q19 60 19 130h-36v82h65v-41z" />
<glyph unicode="&#x13d;" horiz-adv-x="532" d="M149 699v-651h346v-48h-405v699h59zM390 657q0 -65 -5.5 -94t-26.5 -77h-16q19 60 19 130h-36v82h65v-41z" />
<glyph unicode="&#x13e;" horiz-adv-x="266" d="M283 659q0 -65 -5.5 -94t-26.5 -77h-16q19 60 19 130h-36v82h65v-41zM197 -3q-60 0 -85 30t-25 93v579h56v-577q0 -47 13.5 -62t57.5 -15v-48h-17z" />
<glyph unicode="&#x141;" horiz-adv-x="532" d="M149 48h346v-48h-405v288l-59 -39v51l59 39v360h59v-320l135 90v-51l-135 -90v-280z" />
<glyph unicode="&#x142;" horiz-adv-x="266" d="M228 391l-85 -57v-212q0 -47 13.5 -62t57.5 -15v-48h-17q-60 0 -85 30t-25 93v176l-75 -51v51l75 51v352h56v-314l85 57v-51z" />
<glyph unicode="&#x143;" horiz-adv-x="719" d="M444 860l-77 -106h-40l37 106h80zM629 699v-699h-70l-413 615v-615h-56v699h68l414 -617v617h57z" />
<glyph unicode="&#x144;" horiz-adv-x="545" d="M357 677l-77 -106h-40l37 106h80zM407 296q0 79 -23.5 123t-89.5 44q-58 0 -95 -34t-49 -89q-7 -32 -7 -97v-243h-56v490h56v-79q51 94 162 94q90 0 124 -52.5t34 -151.5v-301h-56v296z" />
<glyph unicode="&#x145;" horiz-adv-x="719" d="M629 699v-699h-70l-413 615v-615h-56v699h68l414 -617v617h57zM400 -105q0 -65 -5.5 -94t-26.5 -77h-16q19 60 19 130h-36v82h65v-41z" />
<glyph unicode="&#x146;" horiz-adv-x="545" d="M407 296q0 79 -23.5 123t-89.5 44q-58 0 -95 -34t-49 -89q-7 -32 -7 -97v-243h-56v490h56v-79q51 94 162 94q90 0 124 -52.5t34 -151.5v-301h-56v296zM312 -106q0 -65 -5.5 -94t-26.5 -77h-16q19 60 19 130h-36v82h65v-41z" />
<glyph unicode="&#x147;" horiz-adv-x="719" d="M388 749h-58l-87 111h56l61 -82l60 82h57zM629 699v-699h-70l-413 615v-615h-56v699h68l414 -617v617h57z" />
<glyph unicode="&#x148;" horiz-adv-x="545" d="M301 566h-58l-87 111h56l61 -82l60 82h57zM407 296q0 79 -23.5 123t-89.5 44q-58 0 -95 -34t-49 -89q-7 -32 -7 -97v-243h-56v490h56v-79q51 94 162 94q90 0 124 -52.5t34 -151.5v-301h-56v296z" />
<glyph unicode="&#x14a;" horiz-adv-x="719" d="M572 699h57v-795q0 -118 -104 -118q-19 0 -39 3v43q14 -2 22 -2q18 0 31 5.5t19.5 13.5t10 22t4 25t0.5 30v75l-427 614v-615h-56v699h68l414 -596v596z" />
<glyph unicode="&#x14b;" horiz-adv-x="545" d="M305 505q90 0 124 -52.5t34 -151.5v-417q0 -118 -104 -118q-19 0 -39 3v43q14 -2 22 -2q18 0 31 5.5t19.5 13.5t10 22t4 25t0.5 30v390q0 79 -23.5 123t-89.5 44q-58 0 -95 -34t-49 -89q-7 -32 -7 -97v-243h-56v490h56v-79q51 94 162 94z" />
<glyph unicode="&#x14c;" horiz-adv-x="785" d="M500 788h-215v47h215v-47zM393 -20q-147 0 -242.5 104t-95.5 266q0 161 95.5 264.5t242.5 103.5t242 -103.5t95 -264.5q0 -162 -95 -266t-242 -104zM393 670q-125 0 -201.5 -88.5t-76.5 -231.5t77 -232.5t201 -89.5t200.5 89t76.5 233q0 143 -76.5 231.5t-200.5 88.5z " />
<glyph unicode="&#x14d;" horiz-adv-x="535" d="M375 585h-215v47h215v-47zM488 246q0 -112 -55.5 -186.5t-164.5 -74.5q-108 0 -164.5 74.5t-56.5 186.5t56.5 185.5t164.5 73.5q109 0 164.5 -73.5t55.5 -185.5zM430 245q0 42 -8 78.5t-25.5 68.5t-50 50.5t-77.5 18.5q-86 0 -125 -62.5t-39 -155.5q0 -90 38 -152 t125 -62q45 0 78 18.5t50.5 50.5t25.5 68t8 79z" />
<glyph unicode="&#x150;" horiz-adv-x="785" d="M438 879l-125 -106h-44l84 106h85zM576 879l-124 -106h-44l83 106h85zM393 -20q-147 0 -242.5 104t-95.5 266q0 161 95.5 264.5t242.5 103.5t242 -103.5t95 -264.5q0 -162 -95 -266t-242 -104zM393 670q-125 0 -201.5 -88.5t-76.5 -231.5t77 -232.5t201 -89.5t200.5 89 t76.5 233q0 143 -76.5 231.5t-200.5 88.5z" />
<glyph unicode="&#x151;" horiz-adv-x="535" d="M313 676l-125 -106h-44l84 106h85zM451 676l-124 -106h-44l83 106h85zM488 246q0 -112 -55.5 -186.5t-164.5 -74.5q-108 0 -164.5 74.5t-56.5 186.5t56.5 185.5t164.5 73.5q109 0 164.5 -73.5t55.5 -185.5zM430 245q0 42 -8 78.5t-25.5 68.5t-50 50.5t-77.5 18.5 q-86 0 -125 -62.5t-39 -155.5q0 -90 38 -152t125 -62q45 0 78 18.5t50.5 50.5t25.5 68t8 79z" />
<glyph unicode="&#x152;" horiz-adv-x="1001" d="M511 0q-56 -20 -118 -20q-104 0 -182 52.5t-116 135t-38 180.5q0 154 92.5 262.5t241.5 108.5q64 0 118 -21h425v-48h-365v-265h315v-49h-315v-288h377v-48h-435zM510 644q-56 29 -122 29q-83 0 -146.5 -48t-94 -121t-30.5 -155t30 -153.5t95 -120t153 -48.5q63 0 115 26 v591z" />
<glyph unicode="&#x153;" horiz-adv-x="890" d="M482 246q0 -56 14.5 -103.5t53.5 -82.5t97 -35q46 0 81.5 21.5t52.5 63.5h53q-48 -125 -191 -125q-138 0 -187 124q-53 -123 -189 -123q-108 0 -164 74.5t-56 186.5t56 185.5t165 73.5q139 0 189 -124q50 122 183 122q73 0 120.5 -37.5t65.5 -93t18 -127.5h-362zM430 247 q0 58 -13.5 105t-51.5 81.5t-97 34.5t-97.5 -34.5t-52.5 -81.5t-14 -106q0 -58 13.5 -105t52 -81.5t97.5 -34.5q45 0 78 19t51 52t26 70.5t8 80.5zM787 286q-4 81 -41 130t-107 49q-72 0 -110.5 -51t-44.5 -128h303z" />
<glyph unicode="&#x154;" horiz-adv-x="618" d="M373 860l-77 -106h-40l37 106h80zM352 699q93 0 153 -61.5t60 -155.5q0 -83 -49 -141t-133 -73l210 -268h-72l-207 266h-166v-266h-58v699h262zM343 316q74 0 118 46.5t44 120.5q0 73 -42.5 119t-119.5 46h-195v-332h195z" />
<glyph unicode="&#x155;" horiz-adv-x="325" d="M265 671l-77 -106h-40l37 106h80zM303 440q-6 1 -19 1q-84 0 -125 -74q-22 -40 -22 -133v-234h-50v490h50v-94q40 99 154 99q2 0 6 -0.5t6 -0.5v-54z" />
<glyph unicode="&#x156;" horiz-adv-x="618" d="M352 699q93 0 153 -61.5t60 -155.5q0 -83 -49 -141t-133 -73l210 -268h-72l-207 266h-166v-266h-58v699h262zM343 316q74 0 118 46.5t44 120.5q0 73 -42.5 119t-119.5 46h-195v-332h195zM347 -106q0 -65 -5.5 -94t-26.5 -77h-16q19 60 19 130h-36v82h65v-41z" />
<glyph unicode="&#x157;" horiz-adv-x="325" d="M303 440q-6 1 -19 1q-84 0 -125 -74q-22 -40 -22 -133v-234h-50v490h50v-94q40 99 154 99q2 0 6 -0.5t6 -0.5v-54zM146 -105q0 -65 -5.5 -94t-26.5 -77h-16q19 60 19 130h-36v82h65v-41z" />
<glyph unicode="&#x158;" horiz-adv-x="618" d="M317 749h-58l-87 111h56l61 -82l60 82h57zM352 699q93 0 153 -61.5t60 -155.5q0 -83 -49 -141t-133 -73l210 -268h-72l-207 266h-166v-266h-58v699h262zM343 316q74 0 118 46.5t44 120.5q0 73 -42.5 119t-119.5 46h-195v-332h195z" />
<glyph unicode="&#x159;" horiz-adv-x="325" d="M209 560h-58l-87 111h56l61 -82l60 82h57zM303 440q-6 1 -19 1q-84 0 -125 -74q-22 -40 -22 -133v-234h-50v490h50v-94q40 99 154 99q2 0 6 -0.5t6 -0.5v-54z" />
<glyph unicode="&#x15a;" horiz-adv-x="649" d="M410 880l-77 -106h-40l37 106h80zM336 -20q-121 0 -191 56.5t-80 168.5h60q6 -82 61 -128.5t156 -46.5q93 0 142 40.5t49 117.5q0 56 -32 86.5t-118 50.5l-109 26q-95 23 -137 65.5t-42 111.5q0 87 60 139t177 52q221 0 248 -183h-58q-20 135 -191 135q-87 0 -132.5 -36 t-45.5 -103q0 -55 33 -84t107 -47l109 -26q102 -24 146 -69t44 -120q0 -100 -68.5 -153t-187.5 -53z" />
<glyph unicode="&#x15b;" horiz-adv-x="467" d="M311 676l-77 -106h-40l37 106h80zM425 132q0 -74 -54.5 -110.5t-135.5 -36.5q-75 0 -127.5 33t-60.5 101h60q18 -86 133 -86q61 0 95.5 25.5t34.5 69.5q0 21 -8.5 37t-19.5 25.5t-33 18t-37.5 12.5t-43.5 10q-34 8 -50 12.5t-43 15.5t-40 24t-23.5 35t-10.5 51 q0 70 51 103t124 33q75 0 122 -33t56 -94h-60q-16 80 -116 80q-57 0 -90 -23.5t-33 -64.5q0 -19 8 -33.5t18.5 -23.5t32 -17t36 -12t42.5 -10q34 -8 51 -12.5t44.5 -16t41.5 -24.5t25 -36t11 -53z" />
<glyph unicode="&#x15e;" horiz-adv-x="649" d="M592 186q0 -98 -65 -150.5t-179 -55.5l-33 -33q44 -6 67.5 -20.5t23.5 -53.5q0 -38 -27 -61t-66 -23q-53 0 -90 34l25 26q29 -26 66 -26q23 0 38.5 13t15.5 35q0 18 -8.5 29t-26.5 15t-29 5t-31 1v23l34 37q-108 6 -170.5 62.5t-71.5 161.5h60q6 -82 61 -128.5t156 -46.5 q93 0 142 40.5t49 117.5q0 56 -32 86.5t-118 50.5l-109 26q-95 23 -137 65.5t-42 111.5q0 87 60 139t177 52q221 0 248 -183h-58q-20 135 -191 135q-87 0 -132.5 -36t-45.5 -103q0 -55 33 -84t107 -47l109 -26q102 -24 146 -69t44 -120z" />
<glyph unicode="&#x15f;" horiz-adv-x="467" d="M425 132q0 -67 -46 -103.5t-117 -42.5l-38 -39q44 -6 67.5 -20.5t23.5 -53.5q0 -38 -27 -61t-66 -23q-53 0 -90 34l25 26q29 -26 66 -26q23 0 38.5 13t15.5 35q0 18 -8.5 29t-26.5 15t-29 5t-31 1v23l38 41q-70 3 -117.5 36t-55.5 98h60q18 -86 133 -86q61 0 95.5 25.5 t34.5 69.5q0 21 -8.5 37t-19.5 25.5t-33 18t-37.5 12.5t-43.5 10q-34 8 -50 12.5t-43 15.5t-40 24t-23.5 35t-10.5 51q0 70 51 103t124 33q75 0 122 -33t56 -94h-60q-16 80 -116 80q-57 0 -90 -23.5t-33 -64.5q0 -19 8 -33.5t18.5 -23.5t32 -17t36 -12t42.5 -10 q34 -8 51 -12.5t44.5 -16t41.5 -24.5t25 -36t11 -53z" />
<glyph unicode="&#x160;" horiz-adv-x="649" d="M354 769h-58l-87 111h56l61 -82l60 82h57zM336 -20q-121 0 -191 56.5t-80 168.5h60q6 -82 61 -128.5t156 -46.5q93 0 142 40.5t49 117.5q0 56 -32 86.5t-118 50.5l-109 26q-95 23 -137 65.5t-42 111.5q0 87 60 139t177 52q221 0 248 -183h-58q-20 135 -191 135 q-87 0 -132.5 -36t-45.5 -103q0 -55 33 -84t107 -47l109 -26q102 -24 146 -69t44 -120q0 -100 -68.5 -153t-187.5 -53z" />
<glyph unicode="&#x161;" horiz-adv-x="467" d="M255 565h-58l-87 111h56l61 -82l60 82h57zM425 132q0 -74 -54.5 -110.5t-135.5 -36.5q-75 0 -127.5 33t-60.5 101h60q18 -86 133 -86q61 0 95.5 25.5t34.5 69.5q0 21 -8.5 37t-19.5 25.5t-33 18t-37.5 12.5t-43.5 10q-34 8 -50 12.5t-43 15.5t-40 24t-23.5 35t-10.5 51 q0 70 51 103t124 33q75 0 122 -33t56 -94h-60q-16 80 -116 80q-57 0 -90 -23.5t-33 -64.5q0 -19 8 -33.5t18.5 -23.5t32 -17t36 -12t42.5 -10q34 -8 51 -12.5t44.5 -16t41.5 -24.5t25 -36t11 -53z" />
<glyph unicode="&#x162;" horiz-adv-x="521" d="M290 0h-1l-52 -53q44 -6 67.5 -20.5t23.5 -53.5q0 -38 -27 -61t-66 -23q-53 0 -90 34l25 26q29 -26 66 -26q23 0 38.5 13t15.5 35q0 18 -8.5 29t-26.5 15t-29 5t-31 1v23l52 56h-15v650h-208v49h473v-49h-207v-650z" />
<glyph unicode="&#x163;" horiz-adv-x="294" d="M167 -53q44 -6 67.5 -20.5t23.5 -53.5q0 -38 -27 -61t-66 -23q-53 0 -90 34l25 26q29 -26 66 -26q23 0 38.5 13t15.5 35q0 18 -8.5 29t-26.5 15t-29 5t-31 1v23l51 54q-40 9 -56 38t-16 81v326h-77v47h77v148h56v-148h97v-47h-97v-324q0 -41 13 -60t51 -19q11 0 17 1v-43 q-13 -3 -27 -3z" />
<glyph unicode="&#x164;" horiz-adv-x="521" d="M289 749h-58l-87 111h56l61 -82l60 82h57zM290 650v-650h-58v650h-208v49h473v-49h-207z" />
<glyph unicode="&#x165;" horiz-adv-x="294" d="M310 736q0 -65 -5.5 -94t-26.5 -77h-16q19 60 19 130h-36v82h65v-41zM160 119q0 -41 13 -60t51 -19q11 0 17 1v-43q-15 -3 -29 -3q-60 0 -84 30t-24 92v326h-77v47h77v148h56v-148h97v-47h-97v-324z" />
<glyph unicode="&#x166;" horiz-adv-x="521" d="M497 650h-207v-277h132v-48h-132v-325h-58v325h-133v48h133v277h-208v49h473v-49z" />
<glyph unicode="&#x167;" horiz-adv-x="294" d="M257 443h-97v-130h97v-46h-97v-148q0 -41 13 -60t51 -19q11 0 17 1v-43q-15 -3 -29 -3q-60 0 -84 30t-24 92v150h-77v46h77v130h-77v47h77v148h56v-148h97v-47z" />
<glyph unicode="&#x16a;" horiz-adv-x="670" d="M443 769h-215v47h215v-47zM335 -20q-123 0 -184 66t-61 215v438h58v-434q0 -126 43.5 -181.5t143.5 -55.5t143.5 55.5t43.5 181.5v434h58v-438q0 -149 -61 -215t-184 -66z" />
<glyph unicode="&#x16b;" horiz-adv-x="545" d="M380 577h-215v47h215v-47zM403 79q-51 -94 -162 -94q-53 0 -94 26t-54 75q-11 37 -11 113v291h56v-296q0 -89 28 -127t89 -38q55 0 92 33.5t48 87.5q7 32 7 97v243h56v-490h-56z" />
<glyph unicode="&#x16e;" horiz-adv-x="670" d="M426 816q0 -36 -27 -61.5t-63 -25.5t-63 25t-27 61t27 61.5t63 25.5t63 -25t27 -61zM393 815q0 24 -16.5 41t-40.5 17q-23 0 -40 -17t-17 -40t17 -40t40 -17t40 16.5t17 39.5zM335 -20q-123 0 -184 66t-61 215v438h58v-434q0 -126 43.5 -181.5t143.5 -55.5t143.5 55.5 t43.5 181.5v434h58v-438q0 -149 -61 -215t-184 -66z" />
<glyph unicode="&#x16f;" horiz-adv-x="545" d="M363 624q0 -36 -27 -61.5t-63 -25.5t-63 25t-27 61t27 61.5t63 25.5t63 -25t27 -61zM330 623q0 24 -16.5 41t-40.5 17q-23 0 -40 -17t-17 -40t17 -40t40 -17t40 16.5t17 39.5zM403 79q-51 -94 -162 -94q-53 0 -94 26t-54 75q-11 37 -11 113v291h56v-296q0 -89 28 -127 t89 -38q55 0 92 33.5t48 87.5q7 32 7 97v243h56v-490h-56z" />
<glyph unicode="&#x170;" horiz-adv-x="670" d="M381 860l-125 -106h-44l84 106h85zM519 860l-124 -106h-44l83 106h85zM335 -20q-123 0 -184 66t-61 215v438h58v-434q0 -126 43.5 -181.5t143.5 -55.5t143.5 55.5t43.5 181.5v434h58v-438q0 -149 -61 -215t-184 -66z" />
<glyph unicode="&#x171;" horiz-adv-x="545" d="M318 668l-125 -106h-44l84 106h85zM456 668l-124 -106h-44l83 106h85zM403 79q-51 -94 -162 -94q-53 0 -94 26t-54 75q-11 37 -11 113v291h56v-296q0 -89 28 -127t89 -38q55 0 92 33.5t48 87.5q7 32 7 97v243h56v-490h-56z" />
<glyph unicode="&#x172;" horiz-adv-x="670" d="M522 699h58v-438q0 -133 -48.5 -199.5t-145.5 -78.5q-54 -50 -22 -100q17 -26 34 -37l-42 -27q-25 15 -45 46q-34 56 19 115q-121 2 -180.5 67.5t-59.5 213.5v438h58v-434q0 -126 43.5 -181.5t143.5 -55.5t143.5 55.5t43.5 181.5v434z" />
<glyph unicode="&#x173;" horiz-adv-x="545" d="M458 0q-82 -58 -43 -117q17 -26 34 -37l-42 -27q-25 15 -45 46q-42 69 40 135l1 79q-51 -94 -162 -94q-53 0 -94 26t-54 75q-11 37 -11 113v291h56v-296q0 -89 28 -127t89 -38q55 0 92 33.5t48 87.5q7 32 7 97v243h56v-490z" />
<glyph unicode="&#x174;" horiz-adv-x="952" d="M536 749l-60 81l-61 -81h-56l87 111h58l89 -111h-57zM443 699h65l195 -643l174 643h58l-201 -699h-66l-193 642l-189 -642h-67l-202 699h60l177 -644z" />
<glyph unicode="&#x175;" horiz-adv-x="707" d="M414 556l-60 81l-61 -81h-56l87 111h58l89 -111h-57zM197 74l135 416h47l131 -416l127 416h53l-158 -490h-49l-132 406l-133 -406h-50l-151 490h58z" />
<glyph unicode="&#x176;" horiz-adv-x="562" d="M340 749l-60 81l-61 -81h-56l87 111h58l89 -111h-57zM542 699l-234 -376v-323h-59v323l-229 376h69l189 -316l193 316h71z" />
<glyph unicode="&#x177;" horiz-adv-x="463" d="M232 637l-61 -81h-56l87 111h58l89 -111h-57zM390 490h56l-222 -602q-45 -120 -137 -120q-22 0 -38 4l4 46q18 -4 29 -4q22 0 37.5 6.5t26 21.5t16 27t14.5 36l38 100l-197 485h58l163 -411z" />
<glyph unicode="&#x178;" horiz-adv-x="562" d="M237 759h-74v81h74v-81zM396 759h-74v81h74v-81zM542 699l-234 -376v-323h-59v323l-229 376h69l189 -316l193 316h71z" />
<glyph unicode="&#x179;" horiz-adv-x="590" d="M380 860l-77 -106h-40l37 106h80zM528 652q-62 -93 -408 -605h418v-47h-496v41l414 609h-379v49h451v-47z" />
<glyph unicode="&#x17a;" horiz-adv-x="452" d="M310 667l-77 -106h-40l37 106h80zM122 46h275v-46h-342v44l264 400h-248v46h320v-37z" />
<glyph unicode="&#x17b;" horiz-adv-x="590" d="M333 759h-74v81h74v-81zM528 652q-62 -93 -408 -605h418v-47h-496v41l414 609h-379v49h451v-47z" />
<glyph unicode="&#x17c;" horiz-adv-x="452" d="M263 566h-74v81h74v-81zM122 46h275v-46h-342v44l264 400h-248v46h320v-37z" />
<glyph unicode="&#x17d;" horiz-adv-x="590" d="M324 749h-58l-87 111h56l61 -82l60 82h57zM528 652q-62 -93 -408 -605h418v-47h-496v41l414 609h-379v49h451v-47z" />
<glyph unicode="&#x17e;" horiz-adv-x="452" d="M254 556h-58l-87 111h56l61 -82l60 82h57zM122 46h275v-46h-342v44l264 400h-248v46h320v-37z" />
<glyph unicode="&#x192;" horiz-adv-x="495" d="M453 665q-28 7 -51 7q-84 0 -99 -99l-24 -150h137v-44h-146l-57 -375q-10 -62 -39.5 -93.5t-89.5 -31.5q-21 0 -42 3v43q20 -2 31 -2q71 0 85 85l55 371h-94v44h102l27 158q11 66 44 100.5t97 34.5q44 0 64 -8v-43z" />
<glyph unicode="&#x2c6;" horiz-adv-x="348" d="M234 570l-60 81l-61 -81h-56l87 111h58l89 -111h-57z" />
<glyph unicode="&#x2c7;" horiz-adv-x="348" d="M202 570h-58l-87 111h56l61 -82l60 82h57z" />
<glyph unicode="&#x2d8;" horiz-adv-x="366" d="M309 684q-5 -50 -40.5 -82.5t-85.5 -32.5t-85.5 32.5t-40.5 82.5h42q5 -32 28.5 -54.5t55.5 -22.5q33 0 57 22t28 55h41z" />
<glyph unicode="&#x2d9;" horiz-adv-x="188" d="M131 600h-74v81h74v-81z" />
<glyph unicode="&#x2da;" horiz-adv-x="294" d="M237 657q0 -36 -27 -61.5t-63 -25.5t-63 25t-27 61t27 61.5t63 25.5t63 -25t27 -61zM204 656q0 24 -16.5 41t-40.5 17q-23 0 -40 -17t-17 -40t17 -40t40 -17t40 16.5t17 39.5z" />
<glyph unicode="&#x2db;" horiz-adv-x="267" d="M77 -5l5 14l30 -9q-26 -98 42 -117q29 -8 50 -7l-15 -47q-29 -6 -64 6q-33 11 -47.5 39.5t-13 59t12.5 61.5z" />
<glyph unicode="&#x2dc;" horiz-adv-x="402" d="M345 680q-11 -38 -29.5 -58.5t-52.5 -20.5q-21 0 -61 16t-59 16q-33 0 -47 -36h-39v2q11 39 29.5 60t53.5 21q22 0 62 -16t58 -16q34 0 45 33z" />
<glyph unicode="&#x2dd;" horiz-adv-x="421" d="M226 681l-125 -106h-44l84 106h85zM364 681l-124 -106h-44l83 106h85z" />
<glyph unicode="&#x300;" horiz-adv-x="0" d="M-47 575h-40l-77 106h81z" />
<glyph unicode="&#x301;" horiz-adv-x="0" d="M-68 681l-77 -106h-40l37 106h80z" />
<glyph unicode="&#x302;" horiz-adv-x="0" d="M-114 570l-60 81l-61 -81h-56l87 111h58l89 -111h-57z" />
<glyph unicode="&#x303;" horiz-adv-x="0" d="M-57 660q-11 -38 -29.5 -58.5t-52.5 -20.5q-21 0 -61 16t-59 16q-33 0 -47 -36h-39v2q11 39 29.5 60t53.5 21q22 0 62 -16t58 -16q34 0 45 33z" />
<glyph unicode="&#x304;" horiz-adv-x="0" d="M-89 590h-215v47h215v-47z" />
<glyph unicode="&#x306;" horiz-adv-x="0" d="M-57 684q-5 -50 -40.5 -82.5t-85.5 -32.5t-85.5 32.5t-40.5 82.5h42q5 -32 28.5 -54.5t55.5 -22.5q33 0 57 22t28 55h41z" />
<glyph unicode="&#x307;" horiz-adv-x="0" d="M-57 580h-74v81h74v-81z" />
<glyph unicode="&#x308;" horiz-adv-x="0" d="M-236 580h-74v81h74v-81zM-77 580h-74v81h74v-81z" />
<glyph unicode="&#x30a;" horiz-adv-x="0" d="M-57 637q0 -36 -27 -61.5t-63 -25.5t-63 25t-27 61t27 61.5t63 25.5t63 -25t27 -61zM-90 636q0 24 -16.5 41t-40.5 17q-23 0 -40 -17t-17 -40t17 -40t40 -17t40 16.5t17 39.5z" />
<glyph unicode="&#x30b;" horiz-adv-x="0" d="M-165 681l-125 -106h-44l84 106h85zM-27 681l-124 -106h-44l83 106h85z" />
<glyph unicode="&#x30c;" horiz-adv-x="0" d="M-146 570h-58l-87 111h56l61 -82l60 82h57z" />
<glyph unicode="&#x327;" horiz-adv-x="0" d="M-57 -127q0 -38 -27 -61t-66 -23q-53 0 -90 34l25 26q29 -26 66 -26q23 0 38.5 13t15.5 35q0 18 -8.5 29t-26.5 15t-29 5t-31 1v23l52 56h42l-52 -53q44 -6 67.5 -20.5t23.5 -53.5z" />
<glyph unicode="&#x328;" horiz-adv-x="0" d="M-132 18l13 8l17 -26q-82 -58 -43 -117q17 -26 34 -37l-42 -27q-25 15 -45 46q-21 30 -11.5 60.5t29 53t48.5 39.5z" />
<glyph unicode="&#x335;" horiz-adv-x="0" d="M-373 415h323v-48h-323v48z" />
<glyph unicode="&#x1e80;" horiz-adv-x="952" d="M509 754h-40l-77 106h81zM443 699h65l195 -643l174 643h58l-201 -699h-66l-193 642l-189 -642h-67l-202 699h60l177 -644z" />
<glyph unicode="&#x1e81;" horiz-adv-x="707" d="M387 561h-40l-77 106h81zM197 74l135 416h47l131 -416l127 416h53l-158 -490h-49l-132 406l-133 -406h-50l-151 490h58z" />
<glyph unicode="&#x1e82;" horiz-adv-x="952" d="M560 860l-77 -106h-40l37 106h80zM443 699h65l195 -643l174 643h58l-201 -699h-66l-193 642l-189 -642h-67l-202 699h60l177 -644z" />
<glyph unicode="&#x1e83;" horiz-adv-x="707" d="M438 667l-77 -106h-40l37 106h80zM197 74l135 416h47l131 -416l127 416h53l-158 -490h-49l-132 406l-133 -406h-50l-151 490h58z" />
<glyph unicode="&#x1e84;" horiz-adv-x="952" d="M433 759h-74v81h74v-81zM592 759h-74v81h74v-81zM443 699h65l195 -643l174 643h58l-201 -699h-66l-193 642l-189 -642h-67l-202 699h60l177 -644z" />
<glyph unicode="&#x1e85;" horiz-adv-x="707" d="M311 566h-74v81h74v-81zM470 566h-74v81h74v-81zM197 74l135 416h47l131 -416l127 416h53l-158 -490h-49l-132 406l-133 -406h-50l-151 490h58z" />
<glyph unicode="&#x1ef2;" horiz-adv-x="562" d="M313 754h-40l-77 106h81zM542 699l-234 -376v-323h-59v323l-229 376h69l189 -316l193 316h71z" />
<glyph unicode="&#x1ef3;" horiz-adv-x="463" d="M265 561h-40l-77 106h81zM390 490h56l-222 -602q-45 -120 -137 -120q-22 0 -38 4l4 46q18 -4 29 -4q22 0 37.5 6.5t26 21.5t16 27t14.5 36l38 100l-197 485h58l163 -411z" />
<glyph unicode="&#x2000;" horiz-adv-x="451" />
<glyph unicode="&#x2001;" horiz-adv-x="902" />
<glyph unicode="&#x2002;" horiz-adv-x="451" />
<glyph unicode="&#x2003;" horiz-adv-x="902" />
<glyph unicode="&#x2004;" horiz-adv-x="300" />
<glyph unicode="&#x2005;" horiz-adv-x="225" />
<glyph unicode="&#x2006;" horiz-adv-x="150" />
<glyph unicode="&#x2007;" horiz-adv-x="150" />
<glyph unicode="&#x2008;" horiz-adv-x="112" />
<glyph unicode="&#x2009;" horiz-adv-x="180" />
<glyph unicode="&#x200a;" horiz-adv-x="50" />
<glyph unicode="&#x2010;" horiz-adv-x="406" d="M357 307h-308v58h308v-58z" />
<glyph unicode="&#x2011;" horiz-adv-x="406" d="M357 307h-308v58h308v-58z" />
<glyph unicode="&#x2012;" horiz-adv-x="406" d="M357 307h-308v58h308v-58z" />
<glyph unicode="&#x2013;" horiz-adv-x="493" d="M493 306l-492 -1l-1 59h493v-58z" />
<glyph unicode="&#x2014;" horiz-adv-x="986" d="M986 308l-985 -1l-1 59h986v-58z" />
<glyph unicode="&#x2018;" horiz-adv-x="247" d="M163 699l-19 -198h-60l56 198h23z" />
<glyph unicode="&#x2019;" horiz-adv-x="247" d="M163 699l-56 -198h-23l18 198h61z" />
<glyph unicode="&#x201a;" horiz-adv-x="253" d="M166 82l-56 -198h-23l18 198h61z" />
<glyph unicode="&#x201c;" horiz-adv-x="343" d="M163 699l-19 -198h-60l56 198h23zM259 699l-18 -198h-61l56 198h23z" />
<glyph unicode="&#x201d;" horiz-adv-x="343" d="M163 699l-56 -198h-23l18 198h61zM259 699l-56 -198h-23l19 198h60z" />
<glyph unicode="&#x201e;" horiz-adv-x="349" d="M166 82l-56 -198h-23l18 198h61zM262 82l-56 -198h-23l19 198h60z" />
<glyph unicode="&#x2020;" horiz-adv-x="447" d="M199 699h49v-163h127v-43h-127v-493h-49v493h-127v43h127v163z" />
<glyph unicode="&#x2021;" horiz-adv-x="447" d="M199 493h-127v43h127v163h49v-163h127v-43h-127v-291h127v-43h-127v-159h-49v159h-127v43h127v291z" />
<glyph unicode="&#x2022;" horiz-adv-x="318" d="M251 376q0 -38 -27 -65t-65 -27t-65 27t-27 65t27 65t65 27t65 -27t27 -65z" />
<glyph unicode="&#x2026;" horiz-adv-x="499" d="M131 0h-64v82h64v-82zM282 0h-64v82h64v-82zM432 0h-64v82h64v-82z" />
<glyph unicode="&#x202f;" horiz-adv-x="180" />
<glyph unicode="&#x2030;" horiz-adv-x="1233" d="M359 493q0 -51 -12 -98t-47 -85.5t-87 -38.5t-87 38.5t-47 85.5t-12 98t12 98.5t47 86t87 38.5t87 -38.5t47 -86t12 -98.5zM597 699l-285 -699h-39l285 699h39zM309 493q0 27 -4 54t-13 58t-29.5 50t-49.5 19t-49.5 -19t-29.5 -49.5t-13 -58t-4 -54.5t4 -54t13 -57.5 t29.5 -49.5t49.5 -19t49.5 19t29.5 49.5t13 57.5t4 54zM803 209q0 -37 -7.5 -73t-23 -71t-45 -57t-69.5 -22q-52 0 -87 38.5t-47 86t-12 98.5t12 98.5t47 86t87 38.5q40 0 69.5 -22t45 -57t23 -71t7.5 -73zM1166 209q0 -37 -7.5 -73t-23 -71t-45.5 -57t-70 -22 q-52 0 -87 38.5t-47 86t-12 98.5t12 98.5t47 86t87 38.5q40 0 70 -22t45.5 -57t23 -71t7.5 -73zM753 209q0 27 -4 54t-13 57.5t-29.5 49.5t-48.5 19q-29 0 -49.5 -19t-29.5 -49.5t-13 -57.5t-4 -54t4 -54t13 -57.5t29.5 -49.5t49.5 -19q28 0 48.5 19t29.5 49.5t13 57.5t4 54 zM1116 209q0 27 -4 54t-13 57.5t-29.5 49.5t-49.5 19t-49.5 -19t-29.5 -49.5t-13 -57.5t-4 -54t4 -54t13 -57.5t29.5 -49.5t49.5 -19t49.5 19t29.5 49.5t13 57.5t4 54z" />
<glyph unicode="&#x2039;" horiz-adv-x="264" d="M37 217l135 219h55l-134 -219l134 -217h-55z" />
<glyph unicode="&#x203a;" horiz-adv-x="264" d="M37 0l135 217l-135 219h56l134 -219l-134 -217h-56z" />
<glyph unicode="&#x2044;" horiz-adv-x="319" d="M322 699l-286 -699h-39l286 699h39z" />
<glyph unicode="&#x205f;" horiz-adv-x="225" />
<glyph unicode="&#x20ac;" horiz-adv-x="726" d="M617 592q-78 78 -183 78q-103 0 -172.5 -68.5t-91.5 -172.5h289v-48h-296q-1 -10 -1 -31q0 -30 2 -44h295v-48h-286q25 -98 95 -163t168 -65q105 0 182 75l38 -37q-93 -87 -222 -87q-125 0 -212 78t-114 199h-81v48h74q-3 21 -3 44q0 11 2 31h-73v48h79q23 125 112 207.5 t218 82.5q128 0 221 -87z" />
<glyph unicode="&#x2122;" horiz-adv-x="853" d="M341 661h-124v-389h-44v389h-124v38h292v-38zM446 699l154 -312l155 312h49v-427h-44v350l-162 -327l-163 327v-350h-41v427h52z" />
<glyph unicode="&#x2212;" horiz-adv-x="680" d="M623 317h-566v58h566v-58z" />
<glyph unicode="&#x221e;" horiz-adv-x="777" d="M720 347q0 -60 -40 -103t-103 -43q-76 0 -156 78q-10 10 -32 34q-52 -54 -78 -72q-54 -40 -111 -40q-62 0 -102.5 43.5t-40.5 102.5t40 102.5t103 43.5q76 0 156 -78l33 -34q43 48 77 73q53 39 111 39q63 0 103 -43.5t40 -102.5zM357 347q-9 10 -27 28q-21 21 -40 36 q-50 36 -91 36q-42 0 -67 -28.5t-25 -71.5t25 -71.5t67 -28.5t90 36q25 19 68 64zM670 347q0 43 -25 71.5t-67 28.5t-90 -36q-25 -19 -68 -64q43 -45 68 -64q48 -36 90 -36t67 28.5t25 71.5z" />
<glyph unicode="&#x2264;" horiz-adv-x="547" d="M57 346v47l433 213v-57l-370 -180l370 -179v-58zM487 0h-429v58h429v-58z" />
<glyph unicode="&#x2265;" horiz-adv-x="547" d="M57 132v58l370 179l-370 180v57l433 -213v-47zM489 0h-429v58h429v-58z" />
<glyph unicode="&#x25ca;" horiz-adv-x="630" d="M503 496q51 -68 51 -149q0 -78 -52 -147l70 -71l-42 -40l-68 70q-41 -28 -72 -39.5t-76 -11.5q-46 0 -76.5 11.5t-70.5 39.5l-70 -68l-40 40l69 69q-29 43 -40.5 73t-11.5 75q0 76 52 148l-68 68l40 40l69 -68q40 28 72 40t77 12q75 0 147 -51l68 68l42 -41zM500 348 q0 79 -52.5 133t-130.5 54q-80 0 -134 -53.5t-54 -133.5q0 -79 54 -133t133 -54t131.5 54t52.5 133z" />
<glyph unicode="&#x25fc;" horiz-adv-x="490" d="M0 490h490v-490h-490v490z" />
<glyph d="M436 88q-56 -102 -175 -102q-103 0 -158.5 76.5t-55.5 183.5q0 106 57.5 182.5t158.5 76.5q119 0 173 -103v88h49v-490h-49v88zM432 246q0 86 -43 148.5t-125 62.5q-80 0 -120.5 -63t-40.5 -148q0 -86 40 -148.5t121 -62.5q82 0 125 62.5t43 148.5z" />
<glyph d="M362 677l-77 -106h-40l37 106h80zM436 88q-56 -102 -175 -102q-103 0 -158.5 76.5t-55.5 183.5q0 106 57.5 182.5t158.5 76.5q119 0 173 -103v88h49v-490h-49v88zM432 246q0 86 -43 148.5t-125 62.5q-80 0 -120.5 -63t-40.5 -148q0 -86 40 -148.5t121 -62.5 q82 0 125 62.5t43 148.5z" />
<glyph d="M404 680q-5 -50 -40.5 -82.5t-85.5 -32.5t-85.5 32.5t-40.5 82.5h42q5 -32 28.5 -54.5t55.5 -22.5q33 0 57 22t28 55h41zM436 88q-56 -102 -175 -102q-103 0 -158.5 76.5t-55.5 183.5q0 106 57.5 182.5t158.5 76.5q119 0 173 -103v88h49v-490h-49v88zM432 246 q0 86 -43 148.5t-125 62.5q-80 0 -120.5 -63t-40.5 -148q0 -86 40 -148.5t121 -62.5q82 0 125 62.5t43 148.5z" />
<glyph d="M338 566l-60 81l-61 -81h-56l87 111h58l89 -111h-57zM436 88q-56 -102 -175 -102q-103 0 -158.5 76.5t-55.5 183.5q0 106 57.5 182.5t158.5 76.5q119 0 173 -103v88h49v-490h-49v88zM432 246q0 86 -43 148.5t-125 62.5q-80 0 -120.5 -63t-40.5 -148q0 -86 40 -148.5 t121 -62.5q82 0 125 62.5t43 148.5z" />
<glyph d="M235 576h-74v81h74v-81zM394 576h-74v81h74v-81zM436 88q-56 -102 -175 -102q-103 0 -158.5 76.5t-55.5 183.5q0 106 57.5 182.5t158.5 76.5q119 0 173 -103v88h49v-490h-49v88zM432 246q0 86 -43 148.5t-125 62.5q-80 0 -120.5 -63t-40.5 -148q0 -86 40 -148.5 t121 -62.5q82 0 125 62.5t43 148.5z" />
<glyph d="M311 571h-40l-77 106h81zM436 88q-56 -102 -175 -102q-103 0 -158.5 76.5t-55.5 183.5q0 106 57.5 182.5t158.5 76.5q119 0 173 -103v88h49v-490h-49v88zM432 246q0 86 -43 148.5t-125 62.5q-80 0 -120.5 -63t-40.5 -148q0 -86 40 -148.5t121 -62.5q82 0 125 62.5 t43 148.5z" />
<glyph d="M385 586h-215v47h215v-47zM436 88q-56 -102 -175 -102q-103 0 -158.5 76.5t-55.5 183.5q0 106 57.5 182.5t158.5 76.5q119 0 173 -103v88h49v-490h-49v88zM432 246q0 86 -43 148.5t-125 62.5q-80 0 -120.5 -63t-40.5 -148q0 -86 40 -148.5t121 -62.5q82 0 125 62.5 t43 148.5z" />
<glyph d="M485 0q-82 -58 -43 -117q17 -26 34 -37l-42 -27q-25 15 -45 46q-18 26 -12.5 53.5t20.5 48t39 38.5v83q-56 -102 -175 -102q-103 0 -158.5 76.5t-55.5 183.5q0 106 57.5 182.5t158.5 76.5q119 0 173 -103v88h49v-490zM264 35q82 0 125 62.5t43 148.5t-43 148.5t-125 62.5 q-80 0 -120.5 -63t-40.5 -148q0 -86 40 -148.5t121 -62.5z" />
<glyph d="M368 633q0 -36 -27 -61.5t-63 -25.5t-63 25t-27 61t27 61.5t63 25.5t63 -25t27 -61zM335 632q0 24 -16.5 41t-40.5 17q-23 0 -40 -17t-17 -40t17 -40t40 -17t40 16.5t17 39.5zM436 88q-56 -102 -175 -102q-103 0 -158.5 76.5t-55.5 183.5q0 106 57.5 182.5t158.5 76.5 q119 0 173 -103v88h49v-490h-49v88zM432 246q0 86 -43 148.5t-125 62.5q-80 0 -120.5 -63t-40.5 -148q0 -86 40 -148.5t121 -62.5q82 0 125 62.5t43 148.5z" />
<glyph d="M428 656q-11 -38 -29.5 -58.5t-52.5 -20.5q-21 0 -61 16t-59 16q-34 0 -47 -36h-39v2q11 39 29.5 60t53.5 21q22 0 61.5 -16t58.5 -16q34 0 45 33zM436 88q-56 -102 -175 -102q-103 0 -158.5 76.5t-55.5 183.5q0 106 57.5 182.5t158.5 76.5q119 0 173 -103v88h49v-490 h-49v88zM432 246q0 86 -43 148.5t-125 62.5q-80 0 -120.5 -63t-40.5 -148q0 -86 40 -148.5t121 -62.5q82 0 125 62.5t43 148.5z" />
<glyph horiz-adv-x="230" d="M143 0h-56v699h56v-699z" />
<glyph horiz-adv-x="230" d="M200 860l-77 -106h-40l37 106h80zM143 0h-56v699h56v-699z" />
<glyph horiz-adv-x="230" d="M273 659q0 -65 -5.5 -94t-26.5 -77h-16q19 60 19 130h-36v82h65v-41zM143 0h-56v699h56v-699z" />
<glyph horiz-adv-x="230" d="M143 0h-56v699h56v-699zM149 -109q0 -65 -5.5 -94t-26.5 -77h-16q19 60 19 130h-36v82h65v-41z" />
<glyph horiz-adv-x="230" d="M223 442v-51l-80 -54v-337h-56v299l-80 -54v51l80 54v349h56v-311z" />
</font>
</defs>
</svg>
